<?xml version="1.0" encoding="utf-8"?>
<!-- Generator: Adobe Illustrator 19.0.0, SVG Export Plug-In . SVG Version: 6.00 Build 0)  -->
<svg version="1.1" xmlns="http://www.w3.org/2000/svg" xmlns:xlink="http://www.w3.org/1999/xlink" x="0px" y="0px"
	 viewBox="0 0 200 200" style="enable-background:new 0 0 200 200;" xml:space="preserve">
<style type="text/css">
	.st0{stroke:#000000;stroke-miterlimit:10;}
	.st1{fill:#433384;stroke:#000000;stroke-miterlimit:10;}
	.st2{fill:#808285;stroke:#000000;stroke-miterlimit:10;}
	.st3{fill:#7D0A23;stroke:#000000;stroke-miterlimit:10;}
	.st4{fill:#7D0A23;stroke:#000000;stroke-width:2;stroke-miterlimit:10;}
	.st5{fill:#450009;}
	.st6{fill:none;stroke:#000000;stroke-miterlimit:10;}
	.st7{fill:#A33E3D;}
	.st8{opacity:0.76;}
	.st9{fill:#4F4F9C;stroke:#000000;stroke-width:2;stroke-miterlimit:10;}
	.st10{opacity:0.56;fill:#0D0031;}
	.st11{stroke:#000000;stroke-width:2;stroke-miterlimit:10;}
	.st12{opacity:0.76;stroke:#000000;stroke-miterlimit:10;}
	.st13{opacity:0.4;stroke:#000000;stroke-miterlimit:10;}
	.st14{fill:#2B1859;stroke:#000000;stroke-width:2;stroke-miterlimit:10;}
	.st15{opacity:0.61;fill:#FFFFFF;}
	.st16{opacity:8.000000e-002;fill:#5D5E5E;}
	.st17{fill:url(#XMLID_120_);stroke:#000000;stroke-width:2;stroke-miterlimit:10;}
	.st18{opacity:0.42;}
	.st19{stroke:#000000;stroke-width:4;stroke-miterlimit:10;}
	.st20{opacity:0.7;}
	.st21{opacity:0.54;}
	.st22{fill:#7D0A23;}
	.st23{stroke:#000000;stroke-width:0.75;stroke-miterlimit:10;}
	.st24{fill:url(#XMLID_121_);stroke:#000000;stroke-width:2;stroke-miterlimit:10;}
	.st25{opacity:0.7;fill:#FFFFFF;}
	.st26{fill:none;stroke:#414042;stroke-width:0.5;stroke-miterlimit:10;}
	.st27{fill:#603913;stroke:#000000;stroke-miterlimit:10;}
	.st28{opacity:0.5;fill:#0F0500;}
	.st29{opacity:0.35;fill:#C49A6C;}
	.st30{display:none;}
	.st31{display:inline;}
	.st32{fill:url(#XMLID_124_);}
	.st33{fill:none;stroke:#000000;stroke-width:3;stroke-miterlimit:10;}
	.st34{fill:none;stroke:#AC8FAA;stroke-width:2;stroke-miterlimit:10;}
	.st35{fill:url(#XMLID_125_);}
	.st36{fill:none;stroke:#000000;stroke-width:2;stroke-miterlimit:10;}
	.st37{opacity:0.76;fill:#FFFFFF;}
	.st38{fill:#AC8FAA;}
	.st39{fill:#4F4F9C;stroke:#000000;stroke-miterlimit:10;}
	.st40{fill:#433384;}
</style>
<g id="cape">
	<g id="XMLID_10_">
		<path id="XMLID_196_" class="st0" d="M164.1,119c0.1,0.1,0.3,0.1,0.4,0.2c3.1,1.3,10.4,3.4,7.1,7.5c-0.8,1-1.9,1.7-3.1,1.8
			c-3.1,0.3-2.9,2.1-5.3,3.2c-1.6,0.7-3.2-0.2-4.8,0.9c-2.9,2-2.4,6.7-5,9.1c-1.4,1.3-3.5,1.8-4.3,3.5c-0.8,1.6,0,3.6-0.5,5.3
			c-0.7,2.3-3.5,3.3-4.5,5.5c-0.9,1.7-0.9,4-2.6,5.2c-1.5,1.1-4.1,1.1-5.8,1.4c-4.1,0.6-8.6,1.1-11.4,4.5c-0.6,0.7-0.9,1.6-1.4,2.3
			s-1.2,1.5-2.1,1.6c-0.6,0.1-1.3-0.2-1.9,0.1c-2,1.1-0.8,2.6-2.9,0.8c-1.1-0.9-1.8-2.9-2.3-4.2c-1.1-2.9-1.4-6.1-2-9.1
			c-2.1-10.1-5.6-19.9-10.3-29.1c-4.3-8.5-11.2-15.4-15.6-23.8c-1.5-2.8-2.2-6-3.4-8.9c-1.3-3.2-4-7.6-2.8-11.2
			c0.8-2.5,3.4-5,4.7-7.3c1.3-2.3,3-4.8,5.6-5.5c2-0.5,4,0.1,6,0.8c13,4.7,25.2,11.8,35.6,20.9c6.8,6,12.9,12.8,20.1,18.4
			c5.6,4.3,13.6,7.4,20.6,6.6c0.7-0.1,1.4-0.1,2,0.3c1,0.8,0.5,2.4,0,3.5"/>
		<path id="XMLID_198_" class="st1" d="M111.5,90.9c10.5,9.5,21,19.1,31.5,28.6c2.3,2.1,4.7,4.3,7.5,5.8c3,1.6,6.2,0.7,8.8,3.2
			c0.6,0.6,1.2,1.4,2,1.8c0.5,0.2,1.1,0.3,1.6,0.2c1.1-0.2,2-1.1,2.9-1.8c1.6-1.1,3.4-1.6,5.1-2.5c1.7-0.8,3.4-2.2,3.7-4.1
			c-5.5,0.2-9.4-1.6-14.4-3.5c-4.5-1.7-9.2-3.4-12.9-6.6c-3.9-3.3-6.4-8-10-11.7c-2.4-2.5-5.3-4.6-8.2-6.6
			c-5.3-3.8-10.7-7.5-16.5-10.7c-4.2-2.3-9.2-3.7-12.9-6.7c-1.3-1.1-2.7-2-4.2-2.9c-1.9-1.1-7.9-0.8-7,2.8c0.5,2.1,4.6,2,6.2,2.7
			C101.1,81.6,106.4,86.3,111.5,90.9z"/>
		<path id="XMLID_199_" class="st1" d="M115.7,171.1c-0.7-0.3-1-1.2-1.1-1.9c-1.2-7.3,0.9-15.2-2.4-21.8c2.7,6.2,4.4,12.8,5,19.5
			c0,0.5,0.3,1.2,0.8,1.2c0.5,0,0.7-0.8,1.1-1c0.4-0.2,1,0.2,1.4-0.1c0.4-0.2,0.4-0.7,0.5-1.1c0.1-2.3-0.1-4.6-0.7-6.8
			c0.6,2.2,1.1,4.4,1.5,6.6c0.3,1.5,0.3,3.5-1.1,4.1c-0.8,0.4-1.7,0.1-2.6,0.2c-0.9,0.1-1.8,1.1-1.2,1.8
			C116.4,172.1,115.7,171.6,115.7,171.1"/>
		<path id="XMLID_288_" class="st0" d="M164.1,119c0.1,0.1,0.3,0.1,0.4,0.2c3.1,1.3,10.4,3.4,7.1,7.5c-0.8,1-1.9,1.7-3.1,1.8
			c-3.1,0.3-2.9,2.1-5.3,3.2c-1.6,0.7-3.2-0.2-4.8,0.9c-2.9,2-2.4,6.7-5,9.1c-1.4,1.3-3.5,1.8-4.3,3.5c-0.8,1.6,0,3.6-0.5,5.3
			c-0.7,2.3-3.5,3.3-4.5,5.5c-0.9,1.7-0.9,4-2.6,5.2c-1.5,1.1-4.1,1.1-5.8,1.4c-4.1,0.6-8.6,1.1-11.4,4.5c-0.6,0.7-0.9,1.6-1.4,2.3
			s-1.2,1.5-2.1,1.6c-0.6,0.1-1.3-0.2-1.9,0.1c-2,1.1-0.8,2.6-2.9,0.8c-1.1-0.9-1.8-2.9-2.3-4.2c-1.1-2.9-1.4-6.1-2-9.1
			c-2.1-10.1-5.6-19.9-10.3-29.1c-4.3-8.5-11.2-15.4-15.6-23.8c-1.5-2.8-2.2-6-3.4-8.9c-1.3-3.2-4-7.6-2.8-11.2
			c0.8-2.5,3.4-5,4.7-7.3c1.3-2.3,3-4.8,5.6-5.5c2-0.5,4,0.1,6,0.8c13,4.7,25.2,11.8,35.6,20.9c6.8,6,12.9,12.8,20.1,18.4
			c5.6,4.3,13.6,7.4,20.6,6.6c0.7-0.1,1.4-0.1,2,0.3c1,0.8,0.5,2.4,0,3.5"/>
		<path id="XMLID_276_" class="st2" d="M111.5,90.9c10.5,9.5,21,19.1,31.5,28.6c2.3,2.1,4.7,4.3,7.5,5.8c3,1.6,6.2,0.7,8.8,3.2
			c0.6,0.6,1.2,1.4,2,1.8c0.5,0.2,1.1,0.3,1.6,0.2c1.1-0.2,2-1.1,2.9-1.8c1.6-1.1,3.4-1.6,5.1-2.5c1.7-0.8,3.4-2.2,3.7-4.1
			c-5.5,0.2-9.4-1.6-14.4-3.5c-4.5-1.7-9.2-3.4-12.9-6.6c-3.9-3.3-6.4-8-10-11.7c-2.4-2.5-5.3-4.6-8.2-6.6
			c-5.3-3.8-10.7-7.5-16.5-10.7c-4.2-2.3-9.2-3.7-12.9-6.7c-1.3-1.1-2.7-2-4.2-2.9c-1.9-1.1-7.9-0.8-7,2.8c0.5,2.1,4.6,2,6.2,2.7
			C101.1,81.6,106.4,86.3,111.5,90.9z"/>
	</g>
</g>
<g id="back_part">
	<g id="XMLID_116_">
		<g id="XMLID_95_">
			<path id="XMLID_103_" class="st3" d="M44.2,104.3c-1.2,3-0.1,5.5,2.2,9.7c2.6,4.8,5.1,9.6,7.7,14.4c0.6,1.2,1.4,2.4,2.7,2.8
				c4.3,1,7-1.9,8.7-5.2c0.9-1.9,1.5-3.9,2-5.9c0.6-2,2.3-3.4,2.6-5.1c0.8-4.2,1.7-8.4,2.5-12.6c0.1-0.4,0.2-0.9,0.1-1.3
				c-0.1-0.4-0.4-0.7-0.7-1.1c-0.6-0.7-1.3-1.5-1.9-2.2c-3.5-4.1-6-7.6-11.5-5.1c-4.4,2-9,4.4-12,8.1
				C45.4,102,44.7,103.2,44.2,104.3z"/>
			<path id="XMLID_102_" class="st3" d="M52.6,125.8c0,1.5,0.4,3.1,1.5,4.2c4.9,5,8.2-5.9,9.1-8.9c1-3.2,1.7-6.6,2.7-9.8
				c0.2-0.6,0.5-2.8,1.1-3.2c2.5-1.4,2.2,2.2,3.7,3c0.3-1.3,0.7-2.7,1.2-3.9c-0.2-0.3-0.7-0.5-1.1-0.3c-1-0.8-0.7-1.5-1.6-2.4
				c-0.4-0.4-0.9-0.8-1.5-1c-1.2-0.4-2.5,0.2-3.4,1c-2.1,1.8-3,4.6-3.7,7.3c-1.2,4.2-2.4,8.5-2.7,12.8"/>
			<path id="XMLID_101_" class="st4" d="M60.4,121.3c0.8-4.6,1.1-9.1,2.7-13.8c0.4-1.2,1-2.6,2.1-3.1c1.1-0.5,2.5-0.3,3.5,0.4
				c1,0.6,1.8,1.6,2.5,2.5c0,0,1.2-4.8,1.1-5.6c-0.3-2-1.4-3.9-2.6-5.5c-2.8-3.6-7.4-5-12-3.9c-4.7,1.1-9.4,4.6-11.9,8.7
				c-2.6,4.2-1.4,7.9,0.6,11.9c2.4,4.8,3,10.5,6.5,14.8c3.6,4.4,5.8,0.8,6.7-3.1C60,123.5,60.2,122.4,60.4,121.3z"/>
			<path id="XMLID_100_" class="st5" d="M55.1,128.6c0.4-0.1,0.9-0.1,1.3-0.2c-2.9-2.8-3.6-7-4.2-11c1.5-0.1,2.2-1.7,2.7-3.1
				c0.8-2.5,1.6-5.1,2.2-7.7c0.3-1.2,0.6-2.5,1.3-3.6c1.3-1.8,3.2-1.7,5.2-1.4c0.6,0.1,1.4,0.2,1.8-0.3c0.4-0.4,0.2-1.2-0.2-1.6
				c-0.4-0.4-1-0.6-1.6-0.7c-1.3-0.4-2.8-0.7-4-0.3c-1.8,0.6-2.3,2.1-2.9,3.6c-0.6,1.4-1.4,2.7-1.5,4.3c-0.2,2.8-0.6,5.6-2.3,7.9
				c-1.3,1.7-4.6,0.3-3.9,2.9c0.9,3.5,2.4,6.8,4.4,9.8"/>
			<path id="XMLID_99_" class="st6" d="M48.4,116.2c1.1-0.2,2.3-0.4,3.4-0.6c0.3-0.1,0.6-0.1,0.8-0.3c0.3-0.2,0.4-0.6,0.4-1
				c0.8-3.8,1.7-7.5,2.9-11.2c0.6-1.9,1.7-4.2,3.8-4.5c0.6-0.1,1.2,0,1.8,0.2c3.5,0.8,6.9,2.1,10,3.9"/>
			<path id="XMLID_98_" class="st7" d="M52.9,112.9c0.3,1.2-1,2.2-2.3,2.6c-2.8,0.8-4.2-3-4.9-4.9c-1.9-5.9,0.3-11.7,5.6-15.1
				c2.7-1.7,6-3.2,9.2-3.3c3.2-0.2,6.7,1.3,7.9,4.2c-3.1-1.6-6.9-2.4-10.2-1.3c-3,1-5.3,3.3-6.7,6c-1.4,2.7-2,5.7-2.3,8.7
				c-0.1,1.1-0.1,2.3,0.6,3.1c0.7,0.8,2.4,0.8,2.7-0.3"/>
			<path id="XMLID_97_" class="st5" d="M63.6,98.4c-1.4-0.3-3.5-0.8-4.9,0c-0.3,0.2-0.5,0.7-0.8,1c-3.2,3.2-3.7,7.8-4.8,12
				c-0.1,0.3-0.2,0.6-0.3,0.8c-0.3,0.4-1.4,0.9-0.9,1.7c-0.3,0-0.1-0.5-0.5-0.5c-0.4-2.8,0.3-5.6,1.5-8.1c1.2-2.5,2.8-4.9,4.5-7.2
				c0.3-0.4,0.6-0.8,1-1c0.5-0.2,1-0.1,1.6,0c1.6,0.3,3.4,0.8,4.1,2.2c-2-1-4.5-0.9-6.4,0.3c0-0.9,0.5-1.1,1.4-1.1
				c1.9,0.1,3,0.3,4.9,0.1"/>
			<path id="XMLID_96_" class="st7" d="M58.5,125.6c0.3-0.8,0.4-1.7,0.5-2.6c0.4-4.9,1.3-9.7,2.6-14.5c-2.2,4.5-3.7,9.4-4.4,14.4
				c-0.1,0.6-0.2,1.2-0.5,1.7c-0.3,0.5-1.1,0.8-1.6,0.5c0.8,0.5,0.2,2.2,1.5,2.3C57.3,127.4,58.2,126.2,58.5,125.6z"/>
		</g>
		<g id="XMLID_82_">
			<g id="XMLID_89_">
				<path id="XMLID_94_" d="M64.6,128.6c-3.6-4.2-11.7-7.5-16.1-8.4c-0.9,9.6,0.7,16.6,5.4,25.3c1.2,2.2,3.7,4.7,6.4,3.9
					c1.4-0.5,2.2-1.7,2.8-2.9c1.9-3.9,4.6-11,3-15.4C65.8,130.2,65.3,129.4,64.6,128.6z"/>
				<path id="XMLID_91_" d="M64.6,128.6c-0.5-0.6-1.1-1.1-1.7-1.6c-0.6-0.5-1.2-0.9-1.8-1.4c-0.6-0.4-1.3-0.8-2-1.2
					c-0.7-0.4-1.4-0.7-2-1c-1.4-0.7-2.8-1.2-4.3-1.7c-1.4-0.5-2.9-0.9-4.4-1.1l0.6-0.4c-0.1,1.2-0.1,2.4-0.1,3.6
					c0,1.2,0.1,2.4,0.2,3.5c0.1,1.2,0.3,2.3,0.5,3.5c0.2,1.2,0.5,2.3,0.8,3.4c0.3,1.1,0.7,2.2,1.1,3.3c0.4,1.1,0.8,2.2,1.3,3.3
					c0.5,1.1,1,2.1,1.5,3.2c0.3,0.5,0.5,1.1,0.8,1.6c0.3,0.4,0.6,0.9,0.9,1.3c0.7,0.8,1.5,1.5,2.5,1.8c0.9,0.3,2,0.1,2.8-0.5
					c0.8-0.7,1.3-1.7,1.9-2.8c0.5-1,1-2.1,1.5-3.2c0.9-2.2,1.6-4.5,1.9-6.9c0.1-1.2,0.1-2.4-0.2-3.6
					C66.1,130.6,65.4,129.5,64.6,128.6z M64.6,128.6c0.8,0.9,1.5,1.9,1.7,3.1c0.3,1.2,0.4,2.4,0.3,3.6c-0.1,2.4-0.7,4.8-1.4,7.1
					c-0.4,1.2-0.8,2.3-1.3,3.4c-0.5,1.1-0.9,2.3-1.9,3.3c-1,1-2.5,1.4-3.9,1.1c-1.4-0.3-2.5-1.2-3.4-2.1c-0.5-0.5-0.8-1-1.2-1.6
					c-0.3-0.5-0.6-1.1-0.9-1.6c-0.6-1.1-1.1-2.2-1.6-3.3c-0.5-1.1-1-2.2-1.4-3.4c-0.4-1.2-0.8-2.3-1-3.5c-0.3-1.2-0.5-2.4-0.6-3.6
					c-0.2-1.2-0.2-2.4-0.3-3.7c0-1.2,0-2.4,0.1-3.7c0.1-1.2,0.2-2.4,0.4-3.6l0.1-0.6l0.5,0.1c3,0.8,5.9,2.1,8.6,3.5
					c0.7,0.4,1.3,0.7,2,1.1c0.7,0.4,1.3,0.8,1.9,1.3c0.6,0.4,1.2,0.9,1.8,1.4C63.6,127.5,64.1,128,64.6,128.6z"/>
			</g>
			<path id="XMLID_88_" class="st4" d="M64.6,128.6c-3.6-4.2-11.7-7.5-16.1-8.4c-0.9,9.6,0.7,16.6,5.4,25.3c1.2,2.2,3.7,4.7,6.4,3.9
				c1.4-0.5,2.2-1.7,2.8-2.9c1.9-3.9,4.6-11,3-15.4C65.8,130.2,65.3,129.4,64.6,128.6z"/>
			<path id="XMLID_87_" class="st6" d="M65.7,138.2c-1.8-3.9-5.2-6.8-8.8-9.2c-2.3-1.5-5-2.8-7.7-2.6"/>
			<path id="XMLID_86_" class="st6" d="M59,149.2c-5-6.2-6.4-14.4-7.3-22.2c0.2,0.2,0.4,0.5,0.6,0.7"/>
			<path id="XMLID_85_" class="st7" d="M66,133.6c-3-4-7-7.3-11.7-9.4c-1.6-0.7-3.3-1.3-5-1.2c0-0.5,0-1,0-1.5
				c0,0.1,4.8,1.5,5.3,1.7c1.9,0.8,3.8,1.7,5.5,2.8C63.4,128.1,65.2,129.7,66,133.6z"/>
			<path id="XMLID_84_" class="st5" d="M65.2,139c-1.9-3.5-4.6-6.6-8-9c1.6,2.4,3,4.9,3.7,7.6s0.7,5.7-0.4,8.3
				c-1.9-1.5-3.4-3.3-4.5-5.4c-0.1,3,1.7,5.7,3.4,8.2c0.2,0.3,0.4,0.6,0.7,0.6c0.3,0,0.5-0.2,0.7-0.4c2.1-2.5,3.5-5.7,3.8-8.9"/>
			<path id="XMLID_83_" class="st7" d="M57.2,147.7c-3.7-4.5-6.1-11.1-7.5-16.6c-0.4,0.9-0.1,1.9,0.2,2.8c1.7,5.1,3.4,10.4,6.8,14.7
				c0.2,0.3,0.4,0.5,0.8,0.6c0.3,0,0.5-0.1,0.6-0.4C57.8,148.4,57.5,148.1,57.2,147.7z"/>
		</g>
		<g id="XMLID_11_">
			<g id="XMLID_73_">
				<defs>
					<path id="XMLID_77_" d="M60.9,148.1C47,150,63.1,175.6,71.6,166c2-2.2,2-5.6,0.4-7.8c-1.7-2.3-1.5-5.1-3.5-7.2
						C66.6,149,63.7,147.7,60.9,148.1z"/>
				</defs>
				<use xlink:href="#XMLID_77_"  style="overflow:visible;"/>
				<clipPath id="XMLID_118_">
					<use xlink:href="#XMLID_77_"  style="overflow:visible;"/>
				</clipPath>
				<use xlink:href="#XMLID_77_"  style="overflow:visible;fill:none;stroke:#000000;stroke-width:2;stroke-miterlimit:10;"/>
			</g>
			<g id="XMLID_66_">
				<path id="XMLID_61_" d="M55.9,158.4c1.5,3.7,3.7,6,7,8.3c0.2,0.1,0.3,0.2,0.5,0.3c0.3,0.1,0.6-0.1,0.9-0.3c2.6-1.8,5-3.9,7-6.3
					c0.1-0.1,0.2-0.2,0.2-0.4c0-0.2-0.1-0.3-0.2-0.5c-1-1.3-1.2-3.9-1.2-5.4c0-1-0.3-1.2-1-1.9c-0.7-0.7-1.6-1.2-2.5-1.6
					c-0.4-0.1-0.8-0.2-1.1-0.2c-0.4,0.1-0.7,0.3-1,0.5c-3.1,2.3-6,4.9-8.5,7.8"/>
				<path id="XMLID_60_" d="M55.9,158.4c0,0,0.4,0.7,1.1,1.7c0.7,1,1.9,2.4,3.5,3.8c0.8,0.7,1.8,1.4,2.7,2.2
					c0.1,0.1,0.2,0.1,0.1,0.1c0,0,0,0,0,0c0,0,0.1,0,0,0c0,0-0.1,0-0.1,0c0,0,0,0,0,0c0.1,0,0.4-0.2,0.7-0.4c0.6-0.3,1.2-0.7,1.7-1
					c1.2-0.7,2.3-1.6,3.3-2.7c0.5-0.5,1-1.1,1.4-1.7c0.1-0.1,0.2-0.3,0.3-0.4c0-0.1,0-0.1,0-0.1c0,0,0,0,0,0l-0.2-0.2l-0.2-0.2
					c-0.1-0.2-0.2-0.4-0.3-0.6c-0.8-1.5-1-3.1-1.1-4.6l0-0.5c0-0.1,0-0.2-0.1-0.3c0-0.1-0.2-0.3-0.4-0.5l-0.4-0.4
					c-0.1-0.1-0.2-0.2-0.3-0.3c-0.2-0.2-0.5-0.3-0.7-0.5c-0.3-0.1-0.5-0.2-0.8-0.4c-0.3-0.1-0.5-0.2-0.7-0.2c-0.1,0-0.1,0-0.3,0.1
					c-0.2,0.1-0.5,0.3-0.7,0.5c-1,0.7-2,1.4-2.9,2.1c-1.8,1.3-3.2,2.5-4.2,3.3c-1,0.8-1.6,1.3-1.6,1.3l-0.2-0.1c0,0,0.4-0.7,1.2-1.7
					c0.8-1.1,2-2.6,3.6-4.1c0.8-0.8,1.7-1.6,2.8-2.4c0.3-0.2,0.5-0.4,0.9-0.6c0.3-0.2,1-0.5,1.6-0.4c0.5,0,0.9,0.2,1.3,0.3
					c0.4,0.1,0.7,0.3,1.1,0.5c0.3,0.2,0.7,0.4,1,0.7c0.2,0.1,0.3,0.3,0.5,0.5l0.4,0.4c0.2,0.3,0.6,0.7,0.8,1.2
					c0.1,0.3,0.1,0.5,0.1,0.8c0,0.2,0,0.4,0,0.6c0,1.4-0.1,2.9,0.3,4.2c0.1,0.2,0.1,0.3,0.2,0.4l0.3,0.5c0.1,0.1,0.1,0.3,0.1,0.5
					c0,0.2-0.1,0.4-0.2,0.5c-0.2,0.2-0.3,0.3-0.4,0.4c-0.5,0.5-1,1.1-1.6,1.6c-1,1.1-2.1,2.1-3.1,3.1c-0.5,0.5-1,1-1.6,1.4
					c-0.3,0.2-0.5,0.4-1,0.7c-0.1,0.1-0.3,0.1-0.4,0.1c-0.1,0-0.2,0-0.3,0l-0.1,0c-0.1,0-0.1,0-0.2,0c-0.4-0.1-0.6-0.2-0.7-0.3
					c-1.1-0.7-2-1.5-2.9-2.4c-0.8-0.8-1.5-1.7-2-2.5c-0.5-0.8-0.9-1.6-1.1-2.2c-0.2-0.6-0.4-1.1-0.5-1.5c-0.1-0.3-0.1-0.5-0.1-0.5
					L55.9,158.4z"/>
			</g>
			<g id="XMLID_62_">
				<path id="XMLID_57_" d="M65.8,150.6c-0.3-2-0.3-4.1,0.1-6.2c0.1-0.4,0.1-0.8,0-1.1c-0.2-0.6-0.9-0.8-1.4-1
					c-3.5-1-7.3-0.9-10.8,0.3c-1.7,0.6-3.4,1.5-3.9,3.1c-0.2,0.5-0.2,1,0,1.5c0.2,0.3,0.5,0.5,0.9,0.7c2.3,1.4,4.6,2.9,7,4.3
					c0.3,0.2,0.6,0.4,1,0.4c0.4,0.1,0.7,0,1.1-0.1c2.2-0.5,4.3-1.5,6.1-2.8c0-0.2,0-0.1,0-0.3"/>
				<path id="XMLID_56_" d="M65.7,150.6c-0.6-1.8-0.8-3.8-0.7-5.7c0-0.5,0.1-1,0.1-1.2c0-0.1,0-0.1-0.1-0.1
					c-0.1-0.1-0.2-0.1-0.3-0.2c-0.1-0.1-0.4-0.1-0.5-0.2l-0.7-0.2l-1.3-0.3c-1.7-0.4-3.6-0.7-5.4-0.5c-0.9,0.1-1.8,0.3-2.7,0.6
					c-0.9,0.3-1.7,0.8-2.3,1.3c-0.7,0.5-1.2,1.2-1.3,1.9c-0.1,0.3-0.1,0.6,0,0.7c0,0.1,0.3,0.3,0.7,0.5l2.4,1.4
					c0.8,0.5,1.6,1,2.4,1.4l2.3,1.5c0.2,0.1,0.2,0.1,0.3,0.2c0,0,0.2,0,0.4,0c0.2,0,0.4-0.1,0.6-0.1l0.7-0.1c1.8-0.4,3.5-1,5.2-1.8
					l-0.1,0.1l0-0.1c0-0.1,0-0.1,0-0.2h0.2c0,0,0,0.1,0,0.1c0,0.1,0,0.1,0,0.2l0,0l-0.1,0.1c-0.7,0.7-1.4,1.3-2.3,1.8
					c-0.8,0.5-1.7,1-2.6,1.3l-0.7,0.3c-0.2,0.1-0.4,0.2-0.7,0.2c-0.3,0.1-0.6,0.1-1,0.1c-0.4,0-0.7-0.2-1-0.3
					c-0.5-0.3-0.9-0.5-1.3-0.7l-1.2-0.7c-0.8-0.5-1.6-1-2.4-1.5l-2.3-1.6c-0.4-0.3-1-0.6-1.3-1.3c-0.3-0.8-0.2-1.5,0.1-2
					c0.5-1.1,1.4-1.8,2.2-2.3c0.9-0.5,1.8-0.8,2.7-1c0.9-0.3,1.8-0.5,2.8-0.6c1.9-0.4,3.8-0.7,5.8-0.5c0.5,0.1,1,0.1,1.5,0.3
					l0.7,0.2c0.3,0.1,0.5,0.2,0.8,0.3c0.3,0.1,0.6,0.3,0.8,0.6c0.3,0.3,0.5,0.7,0.5,1.1c0,0.4,0,0.7-0.1,0.9l-0.1,0.7
					c-0.4,1.8-0.5,3.6-0.6,5.5L65.7,150.6z"/>
			</g>
			<g id="XMLID_58_">
				<path id="XMLID_53_" d="M65.7,148.7c1,0.3,1.7,1.3,1.6,2.2c-0.1,1.2-1,2.1-2,2.9c-3.3,2.8-6.8,5.6-10.6,7.7
					c0.6-2,0.5-4.5,0.7-6.6c0.1-1.2,0.3-2.5,1.2-3.3"/>
				<path id="XMLID_52_" d="M65.8,148.6c0.4,0,0.9,0.2,1.3,0.5c0.4,0.3,0.7,0.7,0.9,1.2c0.2,0.5,0.2,1.1,0,1.6
					c-0.2,0.5-0.4,1-0.7,1.3c-0.6,0.7-1.3,1.3-1.9,1.7c-0.7,0.5-1.4,0.9-2.1,1.3c-1.5,0.8-2.7,1.9-3.9,3c-0.6,0.6-1.2,1.2-1.9,1.7
					c-0.7,0.5-1.4,1-2.1,1.4l-2.1,1.4l0.7-2.6c0.2-0.7,0.3-1.5,0.3-2.3c0.1-0.8,0.2-1.7,0.3-2.5c0.1-0.9,0.3-1.7,0.6-2.6
					c0.3-0.9,0.8-1.8,1.6-2.3l0.1,0.1c-0.4,0.7-0.5,1.5-0.5,2.3c0,0.8,0,1.7,0.1,2.5c0,0.8,0.1,1.7,0,2.6c-0.1,0.9-0.2,1.8-0.6,2.7
					l-1.4-1.2c0.7-0.4,1.4-0.7,2.1-1.1l2.2-1.1c1.5-0.7,2.8-1.7,3.9-2.9c0.6-0.6,1.1-1.3,1.7-1.8c0.3-0.3,0.6-0.6,0.9-0.8
					c0.3-0.2,0.6-0.5,0.8-0.7c0.2-0.3,0.4-0.5,0.6-0.8c0.1-0.3,0.2-0.5,0.2-0.8c0-0.3-0.1-0.6-0.3-0.9c-0.2-0.3-0.4-0.6-0.8-0.8
					L65.8,148.6z"/>
			</g>
			<g id="XMLID_54_">
				<path id="XMLID_49_" d="M65.6,148.4c-0.3,0-0.6,0.1-1,0.3c-2,0.8-4,1.5-6,2.3c-0.7,0.3-1.4,0.5-2.1,0.8"/>
				<path id="XMLID_48_" d="M65.7,148.5c0,0-0.1,0.2-0.3,0.4c-0.2,0.2-0.4,0.5-0.8,0.8c-0.2,0.1-0.4,0.2-0.7,0.3
					c-0.3,0.1-0.6,0-0.9,0c-0.3,0-0.6,0-0.9,0.1c-0.3,0.1-0.5,0.3-0.7,0.6c-0.2,0.2-0.5,0.5-0.7,0.6c-0.3,0.2-0.5,0.3-0.8,0.5
					c-0.5,0.3-1,0.4-1.5,0.4c-0.5,0-0.9,0-1.2-0.1c-0.3-0.1-0.5-0.1-0.5-0.1l-0.1-0.2c0,0,0.1-0.2,0.3-0.4c0.2-0.3,0.5-0.6,0.8-0.9
					c0.4-0.3,0.8-0.6,1.4-0.7c0.3-0.1,0.6-0.1,0.9-0.2c0.3-0.1,0.6,0,1,0c0.3,0,0.6,0,0.9-0.1c0.3-0.1,0.5-0.3,0.7-0.5
					c0.2-0.2,0.4-0.5,0.6-0.6c0.2-0.1,0.5-0.2,0.7-0.2c0.4-0.1,0.9-0.1,1.2,0c0.2,0,0.3,0.1,0.4,0.1c0.1,0.1,0.1,0.1,0.1,0.1
					L65.7,148.5z"/>
			</g>
			<g id="XMLID_50_">
				<path id="XMLID_108_" d="M56.7,150.9c-0.1,0.2,0,0.5,0.3,0.6s0.5,0,0.7-0.1c1.9-0.6,3.7-1.5,5.2-2.6c0.1-0.1,0.2-0.2,0.2-0.3
					c0-0.1,0-0.1-0.1-0.2c-1.2-2-3.3-3.4-5.6-3.8c-2.3-0.3-4.9,0.6-6.4,2.3c-0.1,0.1-0.2,0.3-0.2,0.4c0,0.2,0.2,0.3,0.4,0.4
					c2,1,3.9,2.2,5.5,3.8"/>
				<path id="XMLID_107_" d="M56.8,150.9c0,0,0,0.1,0.1,0.2c0.1,0.1,0.2,0.1,0.5-0.1c0.3-0.2,0.8-0.4,1.2-0.7c0.5-0.3,1-0.6,1.6-0.9
					c0.6-0.3,1.2-0.7,1.8-1.1l0.2-0.1c0.1,0,0.2-0.1,0.2-0.1c0,0-0.1,0.1-0.1,0.2c0,0.1,0,0.3,0,0.4c0.1,0.1,0,0,0-0.1
					c-0.2-0.4-0.3-0.7-0.5-1.1c-0.4-0.7-1.1-1.4-1.8-1.8c-0.8-0.4-1.7-0.6-2.5-0.6c-0.9,0-1.7,0.2-2.5,0.4c-0.8,0.2-1.5,0.6-2.1,1.1
					c-0.3,0.2-0.6,0.5-0.8,0.7l-0.2,0.2c-0.1,0.1-0.1,0.1-0.1,0.1c0,0,0-0.1,0.1-0.2c0-0.1,0-0.3,0-0.4c-0.1-0.3-0.2-0.3-0.2-0.3
					c0,0,0.1,0,0.2,0.1l0.3,0.1c0.2,0.1,0.4,0.2,0.5,0.3c0.3,0.2,0.6,0.4,0.9,0.6c1.2,0.9,2,1.7,2.5,2.4c0.5,0.7,0.8,1.1,0.8,1.1
					l-0.1,0.1c0,0-0.4-0.2-1.1-0.6c-0.7-0.4-1.7-0.9-2.9-1.5c-0.3-0.1-0.6-0.3-0.9-0.4c-0.2-0.1-0.3-0.1-0.5-0.2l-0.3-0.1
					c-0.1,0-0.2-0.1-0.4-0.2c-0.2-0.1-0.4-0.3-0.6-0.8c-0.1-0.2-0.1-0.5-0.1-0.7c0-0.2,0.1-0.4,0.2-0.5c0.1-0.2,0.3-0.3,0.3-0.4
					l0.2-0.3c0.4-0.3,0.7-0.7,1.2-0.9c0.9-0.5,1.8-0.9,2.8-1.1c0.5-0.1,1-0.1,1.5-0.1c0.3,0,0.5,0.1,0.8,0.1c0.3,0,0.4,0.1,0.7,0.2
					c1,0.3,1.8,0.7,2.7,1.2c0.8,0.5,1.6,1,2.3,1.6c0.2,0.1,0.4,0.3,0.5,0.5c0.2,0.2,0.3,0.4,0.5,0.5c0.1,0.1,0.1,0.1,0.3,0.4
					c0.1,0.2,0.1,0.5,0,0.7c-0.1,0.2-0.2,0.3-0.3,0.4c-0.2,0.2-0.2,0.2-0.3,0.3l-0.2,0.2c-0.7,0.5-1.4,0.9-2,1.2
					c-0.7,0.3-1.3,0.5-1.9,0.6c-0.6,0.2-1.1,0.2-1.5,0.3c-0.2,0-0.5,0-0.7-0.1c-0.2-0.1-0.3-0.3-0.4-0.5c-0.1-0.3,0.1-0.5,0.1-0.5
					L56.8,150.9z"/>
			</g>
			<g id="XMLID_46_" class="st8">
				<path id="XMLID_45_" d="M65.5,149.5c0.4,0.5,0.9,1,0.7,1.6c-0.1,0.3-0.3,0.5-0.5,0.7c-2.8,3.1-6,5.9-9.5,8.3
					c0.1-1.5,0.6-3.1,1.4-4.4c0.2,0.5,0.2,1.1,0.2,1.6c3.2-2,5.8-4.8,7.6-8.1"/>
				<path id="XMLID_44_" d="M65.5,149.5c0.3,0.2,0.6,0.4,0.8,0.7c0.2,0.3,0.4,0.8,0.3,1.2c-0.1,0.5-0.4,0.8-0.6,1.1
					c-0.2,0.3-0.4,0.5-0.6,0.8c-0.4,0.5-0.8,1-1.3,1.5c-0.4,0.5-0.9,0.9-1.4,1.4c-1,0.8-2.2,1.5-3.3,2.2c-1.1,0.7-2.1,1.5-3.1,2.3
					l-0.6,0.5l0-0.9c0-0.8,0-1.6,0.2-2.5c0.2-0.8,0.4-1.6,0.8-2.4l1-1.9l0.7,2.1c0.2,0.6,0.3,1.3,0.3,1.9l-1.6-0.9
					c0.7-0.5,1.4-1.1,2.1-1.6c0.7-0.6,1.4-1.1,2.1-1.7l1-0.9l1-1c0.7-0.6,1.3-1.3,1.9-2L65.5,149.5c-0.6,1.8-1.6,3.6-2.8,5.1
					c-0.6,0.8-1.3,1.5-2,2.1c-0.4,0.3-0.8,0.6-1.2,0.9c-0.4,0.3-0.8,0.5-1.2,0.8l-1.7,1l0.2-1.9c0-0.4,0-0.9-0.1-1.4l1.7,0.2
					c-0.4,0.6-0.7,1.2-1.1,1.9c-0.3,0.7-0.6,1.4-0.7,2.1l-0.7-0.4c1.1-0.6,2.2-1.3,3.1-2.2c0.9-0.9,1.7-1.9,2.6-2.8
					c0.4-0.5,0.9-0.9,1.4-1.3c0.5-0.4,0.9-0.9,1.4-1.3l0.7-0.6c0.2-0.2,0.5-0.4,0.5-0.5c0.1-0.1,0.1-0.3,0.1-0.6
					c-0.1-0.3-0.2-0.6-0.4-0.9L65.5,149.5z"/>
			</g>
			<g id="XMLID_42_">
				<path id="XMLID_111_" d="M63.1,166.2c2.3-0.9,4.4-2.3,6.1-3.9c0.3-0.3,0.6-0.6,0.7-0.9c0.1-0.4,0.1-0.7,0-1.1
					c-0.2-1.4-0.3-2.7-0.3-4.1c0-0.5,0-1-0.2-1.5c-0.2-0.7-1-1-1.5-1.6c-0.1-0.1-0.1-0.2-0.2-0.2c-0.1,0-0.2,0.1-0.2,0.2
					c-1.1,1.5-2.1,3.2-3.8,4.2c1.4-0.4,2.7-1.2,3.7-2.1c0.4,0.6-0.1,1.3-0.6,1.9c-0.8,0.9-1.5,1.9-2.3,2.8c1.2-0.6,2.3-1.4,3.2-2.3
					c2.3,2.6-2.1,5.7-4.1,6.9c-0.1,0.1-0.2,0.1-0.3,0.1c-0.1,0-0.2-0.2-0.3-0.3c-0.3-0.9-0.4-1.8-0.3-2.8c0-0.2,0-0.4-0.1-0.6
					c-0.1-0.1-0.2-0.2-0.4-0.2c-1-0.4-2.1-0.5-3.2-0.4c-0.2,0-0.4,0.1-0.5,0.2c-0.1,0.2,0,0.4,0,0.5c0.9,2.1,2.5,3.9,4.5,5.1"/>
				<path id="XMLID_110_" d="M63,166.1c1.7-1,3.3-2.1,4.7-3.4c0.4-0.3,0.7-0.7,1-1c0.2-0.2,0.3-0.3,0.3-0.4c0.1-0.1,0.1-0.2,0.1-0.3
					c0-0.2,0-0.3-0.1-0.6l-0.1-0.7l-0.1-1.5c-0.1-0.5-0.1-1-0.1-1.5c-0.1-0.6,0-1-0.1-1.4c0-0.1,0-0.2,0-0.2c0,0.1,0-0.1,0-0.1
					s0,0,0,0c-0.1-0.1-0.2-0.2-0.3-0.4l-0.6-0.5c-0.1-0.1-0.2-0.2-0.3-0.3c0,0,0,0,0.1,0c0.1,0.1,0.3,0.1,0.4,0c0.2-0.1,0-0.1,0,0.1
					l-0.2,0.3l-0.5,0.6c-0.3,0.4-0.6,0.8-1,1.1c-0.7,0.7-1.5,1.5-2.4,2l-0.3-0.6c1.3-0.4,2.6-1.1,3.6-2.1l0.3-0.3l0.2,0.4
					c0.2,0.3,0.2,0.6,0.2,0.9c0,0.3-0.2,0.6-0.3,0.8c-0.3,0.5-0.6,0.8-0.8,1.2l-1.7,2.3l-0.9-1.1c1.1-0.7,2.1-1.5,2.9-2.3l0.7-0.7
					l0.6,0.7c0.4,0.5,0.8,1.1,0.9,1.9c0.1,0.7-0.1,1.5-0.4,2c-0.6,1.2-1.4,2-2.2,2.7c-0.4,0.4-0.9,0.7-1.3,1l-0.7,0.5l-0.3,0.2
					c-0.1,0-0.3,0.2-0.9,0.3c-0.1,0-0.2,0-0.2,0c-0.1,0,0,0-0.2,0l0,0c-0.3-0.1-0.3-0.2-0.5-0.3c-0.2-0.2-0.3-0.4-0.4-0.5
					c-0.1-0.3-0.1-0.3-0.2-0.5c-0.1-0.3-0.1-0.6-0.2-0.9c-0.1-0.6-0.1-1.2,0-1.8l0-0.3c0,0,0,0,0.1,0.2c0.1,0.2,0.2,0.1,0.1,0.1
					l-0.3-0.1c-0.4-0.2-0.9-0.3-1.3-0.3c-0.2,0-0.5-0.1-0.7-0.1l-0.3,0l-0.2,0c0,0,0.1-0.1,0.2-0.3c0-0.2,0-0.2,0-0.1
					c0,0.1,0.2,0.5,0.3,0.7c0.8,1.8,2,3.4,3.6,4.7l-0.1,0.2c-1.9-0.9-3.6-2.4-4.8-4.3c-0.2-0.3-0.3-0.4-0.4-0.8
					c-0.1-0.2-0.2-0.5-0.1-0.9c0.2-0.5,0.6-0.7,0.8-0.7c0.2-0.1,0.4-0.1,0.5-0.1l0.4,0c0.3,0,0.6,0,0.9,0c0.6,0,1.2,0.1,1.8,0.3
					c0.2,0.1,0.2,0.1,0.4,0.1c0.2,0.1,0.5,0.2,0.7,0.5c0.3,0.4,0.3,0.7,0.3,0.9l0,0.4c0,0.4,0,0.9,0.1,1.3c0,0.2,0.1,0.4,0.2,0.6
					c0,0.1,0.1,0.3,0.1,0.2c0,0,0-0.1-0.1-0.2c-0.1-0.1-0.1-0.1-0.3-0.2c0,0,0,0,0,0c-0.1,0-0.1,0-0.1,0c-0.1,0-0.1,0-0.2,0
					c-0.4,0-0.3,0.1-0.2,0l0.3-0.2l0.6-0.4c0.4-0.3,0.8-0.6,1.2-0.9c0.7-0.6,1.4-1.3,1.8-2c0.2-0.4,0.3-0.7,0.3-1
					c0-0.3-0.2-0.6-0.4-0.9l1.3,0.1c-1.1,0.9-2.2,1.7-3.5,2.3l-3.4,1.5l2.5-2.6l2-2.1c0.3-0.4,0.7-0.7,0.9-1
					c0.2-0.3,0.4-0.7,0.2-0.9l0.6,0.1c-1.1,1-2.5,1.7-3.9,2.2l-2.4,0.8l2.2-1.4c0.8-0.5,1.4-1.2,2-2c0.3-0.4,0.5-0.8,0.8-1.2
					l0.4-0.6l0.2-0.3c0.1-0.1,0.1-0.2,0.5-0.5c0.2-0.1,0.6-0.1,0.8,0c0.2,0.1,0.3,0.2,0.4,0.3c0.1,0.1,0.1,0.1,0.2,0.2l0.6,0.4
					c0.2,0.2,0.5,0.4,0.7,0.7c0.1,0.1,0.1,0.2,0.2,0.3c0.1,0.1,0,0.1,0.1,0.2c0.1,0.2,0.1,0.3,0.1,0.5c0.2,0.6,0.1,1.2,0.2,1.6
					c0,0.5,0.1,1,0.1,1.5l0.1,1.5l0,0.7c0,0.1,0.1,0.5,0,0.8c0,0.3-0.1,0.8-0.4,1.1c-0.2,0.3-0.4,0.5-0.6,0.7
					c-0.4,0.3-0.8,0.7-1.2,1c-1.7,1.2-3.5,2.1-5.5,2.6L63,166.1z"/>
			</g>
			<g id="XMLID_34_">
				<path id="XMLID_105_" d="M65,165.2c0.2-0.1,0.5,0.1,0.5,0.3c-2.6-1.6-4.8-3.7-6.4-6.2"/>
				<path id="XMLID_104_" d="M65,165.1c0-0.1,0.1-0.2,0.2-0.2c0.1,0,0.2,0,0.3,0c0.2,0,0.5,0.2,0.6,0.6l0.1,0.6l-1-0.1
					c-0.4,0-0.8-0.2-1.1-0.4c-0.4-0.2-0.6-0.5-0.8-0.9c-0.2-0.4-0.4-0.7-0.7-0.9c-0.3-0.2-0.7-0.3-1.1-0.5c-0.4-0.1-0.7-0.4-1-0.6
					c-0.3-0.2-0.6-0.5-0.8-0.8c-0.2-0.3-0.4-0.7-0.5-1.1c-0.1-0.4-0.2-0.8-0.1-1.3l0.2-0.1c0.9,0.3,1.5,0.7,2.1,1.2
					c0.3,0.2,0.5,0.5,0.7,0.8c0.2,0.3,0.4,0.6,0.5,1c0.1,0.4,0.3,0.8,0.5,1c0.2,0.3,0.6,0.4,1,0.5c0.4,0.1,0.8,0.1,1,0.4
					c0.3,0.2,0.5,0.5,0.7,0.8l-0.9,0.5c0.1,0.1,0.2,0.1,0.2,0c0,0,0-0.1,0-0.1c0,0,0-0.1-0.1-0.1L65,165.1z"/>
			</g>
			<g id="XMLID_30_">
				<path id="XMLID_69_" d="M57.3,159.7c-0.2-2.8,0-5.7,0.5-8.5"/>
				<path id="XMLID_67_" d="M57.2,159.7c0,0-0.2-0.1-0.3-0.3c-0.2-0.2-0.4-0.6-0.5-1c0-0.2-0.1-0.4,0-0.7c0-0.2,0.2-0.5,0.3-0.7
					c0.2-0.3,0.3-0.5,0.2-0.8c0-0.3-0.1-0.5-0.2-0.8c-0.1-0.3-0.3-0.6-0.3-0.8c0-0.3-0.1-0.5-0.1-0.8c0-0.5,0.1-1,0.3-1.4
					c0.2-0.4,0.4-0.7,0.6-0.9c0.2-0.2,0.4-0.3,0.4-0.3l0.2,0c0,0,0.1,0.2,0.2,0.4c0.1,0.3,0.3,0.6,0.4,1c0.1,0.4,0.1,0.9,0,1.3
					c-0.1,0.2-0.1,0.5-0.2,0.7c-0.1,0.3-0.2,0.5-0.4,0.8c-0.2,0.3-0.3,0.5-0.3,0.8c0,0.3,0.1,0.5,0.2,0.8c0.1,0.2,0.3,0.5,0.3,0.7
					c0,0.2,0,0.4,0,0.6c-0.1,0.4-0.2,0.7-0.4,1c-0.1,0.2-0.3,0.4-0.3,0.4L57.2,159.7z"/>
			</g>
			<g id="XMLID_28_">
				<defs>
					<path id="XMLID_29_" d="M60.9,148.1c-6.5,0.9-6.1,7.3-3.9,11.8c1.2,2.4,3,4.8,5.3,6.4c2.5,1.8,3.8,2.7,7,1.6
						c0.4-0.1,0.7-0.3,1.1-0.5c0.6-0.4,0.9-1.1,1.4-1.6c0.4-0.3,0.9-0.5,1.3-0.8c0.8-0.6,1.1-1.8,1-2.8c-0.3-2.1-2-3.4-2.8-5.3
						c-0.8-1.9-1.1-3.9-2.5-5.6C66.9,149.1,63.9,147.7,60.9,148.1z"/>
				</defs>
				<use xlink:href="#XMLID_29_"  style="overflow:visible;fill:#7D0A23;"/>
				<clipPath id="XMLID_119_">
					<use xlink:href="#XMLID_29_"  style="overflow:visible;"/>
				</clipPath>
				<use xlink:href="#XMLID_29_"  style="overflow:visible;fill:none;stroke:#000000;stroke-width:2;stroke-miterlimit:10;"/>
			</g>
			<path id="XMLID_27_" class="st4" d="M55.9,158.4c1.5,3.7,3.7,6,7,8.3c0.2,0.1,0.3,0.2,0.5,0.3c0.3,0.1,0.6-0.1,0.9-0.3
				c2.6-1.8,5-3.9,7-6.3c0.1-0.1,0.2-0.2,0.2-0.4c0-0.2-0.1-0.3-0.2-0.5c-1-1.3-1.2-3.9-1.2-5.4c0-1-0.3-1.2-1-1.9
				c-0.7-0.7-1.6-1.2-2.5-1.6c-0.4-0.1-0.8-0.2-1.1-0.2c-0.4,0.1-0.7,0.3-1,0.5c-3.1,2.3-6,4.9-8.5,7.8"/>
			<path id="XMLID_26_" class="st4" d="M65.8,150.6c-0.3-2-0.3-4.1,0.1-6.2c0.1-0.4,0.1-0.8,0-1.1c-0.2-0.6-0.9-0.8-1.4-1
				c-3.5-1-7.3-0.9-10.8,0.3c-1.7,0.6-3.4,1.5-3.9,3.1c-0.2,0.5-0.2,1,0,1.5c0.2,0.3,0.5,0.5,0.9,0.7c2.3,1.4,4.6,2.9,7,4.3
				c0.3,0.2,0.6,0.4,1,0.4c0.4,0.1,0.7,0,1.1-0.1c2.2-0.5,4.3-1.5,6.1-2.8c0-0.2,0-0.1,0-0.3"/>
			<path id="XMLID_25_" class="st4" d="M65.7,148.7c1,0.3,1.7,1.3,1.6,2.2c-0.1,1.2-1,2.1-2,2.9c-3.3,2.8-6.8,5.6-10.6,7.7
				c0.6-2,0.5-4.5,0.7-6.6c0.1-1.2,0.3-2.5,1.2-3.3"/>
			<path id="XMLID_24_" class="st6" d="M65.6,148.4c-0.3,0-0.6,0.1-1,0.3c-2,0.8-4,1.5-6,2.3c-0.7,0.3-1.4,0.5-2.1,0.8"/>
			<path id="XMLID_23_" class="st7" d="M56.7,150.9c-0.1,0.2,0,0.5,0.3,0.6s0.5,0,0.7-0.1c1.9-0.6,3.7-1.5,5.2-2.6
				c0.1-0.1,0.2-0.2,0.2-0.3c0-0.1,0-0.1-0.1-0.2c-1.2-2-3.3-3.4-5.6-3.8c-2.3-0.3-4.9,0.6-6.4,2.3c-0.1,0.1-0.2,0.3-0.2,0.4
				c0,0.2,0.2,0.3,0.4,0.4c2,1,3.9,2.2,5.5,3.8"/>
			<path id="XMLID_22_" class="st5" d="M65.5,149.5c0.4,0.5,0.9,1,0.7,1.6c-0.1,0.3-0.3,0.5-0.5,0.7c-2.8,3.1-6,5.9-9.5,8.3
				c0.1-1.5,0.6-3.1,1.4-4.4c0.2,0.5,0.2,1.1,0.2,1.6c3.2-2,5.8-4.8,7.6-8.1"/>
			<path id="XMLID_21_" class="st7" d="M63.1,166.2c2.3-0.9,4.4-2.3,6.1-3.9c0.3-0.3,0.6-0.6,0.7-0.9c0.1-0.4,0.1-0.7,0-1.1
				c-0.2-1.4-0.3-2.7-0.3-4.1c0-0.5,0-1-0.2-1.5c-0.2-0.7-1-1-1.5-1.6c-0.1-0.1-0.1-0.2-0.2-0.2c-0.1,0-0.2,0.1-0.2,0.2
				c-1.1,1.5-2.1,3.2-3.8,4.2c1.4-0.4,2.7-1.2,3.7-2.1c0.4,0.6-0.1,1.3-0.6,1.9c-0.8,0.9-1.5,1.9-2.3,2.8c1.2-0.6,2.3-1.4,3.2-2.3
				c2.3,2.6-2.1,5.7-4.1,6.9c-0.1,0.1-0.2,0.1-0.3,0.1c-0.1,0-0.2-0.2-0.3-0.3c-0.3-0.9-0.4-1.8-0.3-2.8c0-0.2,0-0.4-0.1-0.6
				c-0.1-0.1-0.2-0.2-0.4-0.2c-1-0.4-2.1-0.5-3.2-0.4c-0.2,0-0.4,0.1-0.5,0.2c-0.1,0.2,0,0.4,0,0.5c0.9,2.1,2.5,3.9,4.5,5.1"/>
			<path id="XMLID_19_" class="st6" d="M65,165.2c0.2-0.1,0.5,0.1,0.5,0.3c-2.6-1.6-4.8-3.7-6.4-6.2"/>
			<path id="XMLID_13_" class="st6" d="M57.3,159.7c-0.2-2.8,0-5.7,0.5-8.5"/>
			<path id="XMLID_12_" class="st6" d="M71.5,156.8c0.4,1.4,0.7,2.9,0.7,4.4"/>
		</g>
		<g id="XMLID_112_">
			<path id="XMLID_115_" class="st3" d="M76.3,160c-0.8,3.5-4.7,6.5-0.4,8.3c4.8,2,9.1,3.3,14.5,1.3c0.2-0.1,0.4-0.1,0.5-0.3
				c0.1-0.2,0.1-0.4,0.1-0.6c-0.4-2.9,1-5.1,1.2-7.8c0.1-2.5-0.7-9.3-2.6-10.5c-1.7-1.1-5.9,0-7.9,0c-0.3,0-0.6,0-0.9,0.2
				c-0.3,0.2-0.5,0.4-0.6,0.7C78.6,154.1,77,157,76.3,160z"/>
			<path id="XMLID_114_" class="st7" d="M90.1,155c-4.1-1.5-6.1-0.7-7.1,0.3c-2.3,2.2-1.1,6.9-4.1,9.3c-0.6,0.5-2,1.3-2.6,0.8
				c-1.2-1.1,1-6.9,3.4-10.8c1.3-2.1,2.2-2.7,2.8-3c2.4-1.2,4.8-0.1,5.6,0.3"/>
			<path id="XMLID_113_" class="st5" d="M89,169c0.1,0,0.3-0.2,0.3-0.8c0.5-1.5,1.1-3.7,1.6-6.4c0.3-1.8,0.6-3.3,0.2-3.5
				c-0.5-0.2-1.9,2-2.8,4c-0.9,2-1.5,4.5-1.5,4.5l0,0C86.9,166.8,88.4,169.3,89,169z"/>
		</g>
		<g id="XMLID_37_">
			<path id="XMLID_64_" class="st0" d="M74.8,171.3c0.3-0.9,0.9-1.7,1.9-2.2c3.1-1.4,9.7,3.1,10.1,6.9c0.4,3.8-1,6.8-1.5,10.3
				c-0.1,0.7,0,1.5-0.1,2.2c-0.1,1.6-0.9,3.1-2.1,3.8C76.9,196.3,73.5,175.6,74.8,171.3z"/>
			<path id="XMLID_63_" class="st3" d="M87.4,176.4c0.1-1.5,0.2-3,0.3-4.5c0-0.3,0-0.6-0.1-0.9c-0.1-0.2-0.3-0.4-0.5-0.5
				c-1-0.7-2-1.5-3-2.2c-1.2-0.9-2.4-1.7-3.8-2.2c-1.4-0.5-2.9-0.5-4.1,0.3c-2.3,1.6-2.7,5.2-2.7,8.4c0,0.4,0,0.9,0.2,1.2
				c0.1,0.2,0.3,0.4,0.6,0.5c1,0.6,2,1.3,3,1.9c0.6,0.4,1.3,0.8,2,0.9c1.3,0.3,2.7-0.5,3.9-1.1c1.5-0.9,3.1-1.8,4.6-2.6"/>
			<path id="XMLID_41_" class="st5" d="M86.2,172.1c2.5,3-3.7,7.3-5.3,5.7c-1.7-1.7-1.6-9.4,1.1-9.8c0.7-0.1,2.6,2.4,3.3,3.1
				C85.6,171.5,86,171.8,86.2,172.1z"/>
			<path id="XMLID_40_" class="st7" d="M77.3,176.3c-0.7,0.4-2-1-2.6-2.3c-1.2-2.9,1-6.7,1.9-6.5C77.9,167.8,78.7,175.5,77.3,176.3z
				"/>
		</g>
		<g id="XMLID_31_">
			<path id="XMLID_33_" class="st3" d="M75.7,188.3c0.5,2.9,1.4,6.4,3.3,7.2c2.7,1.1,7-2.5,6-5.9c-0.8-3.1-6.2-4.7-8.4-5.9
				c-0.2-0.1-0.5-0.3-0.8-0.2c-0.6,0.1-0.7,1.2-0.6,1.9C75.3,186.2,75.5,187.2,75.7,188.3z"/>
			<path id="XMLID_32_" class="st7" d="M79.6,187.1c1.8,2.6,2.1,5.2,1.3,6.3c-0.5,0.7-1.5,0.7-2.1,0.5c-1.8-0.6-3-4.1-2.8-8.8"/>
		</g>
	</g>
</g>
<g id="pelvis">
	<g id="XMLID_9_">
		<path id="XMLID_232_" class="st4" d="M110.2,161.2c-3.8,4.7-9.2,7.3-15.2,7c-2.6-0.1-5.2,0.7-7.7,0.2c-4.6-0.9-7.6-5.3-9.8-9.5
			c-1.4-2.7-4-6.3-3.1-9.5c1.2-4.1,7.2-3.7,10.5-3.9c5.4-0.2,10.7-0.3,16.1-0.5c2.9-0.1,5.8-0.2,8.6-0.5c1.5-0.1,4.2-1.1,5.6-0.7
			C121.6,145.8,112.4,158.6,110.2,161.2z"/>
		<path id="XMLID_177_" class="st5" d="M95.5,167.2c-1.3-0.5-2.6-1.2-3.7-2.1c1.9-1.1,3.8-2.2,5.9-2.8c1.9-0.5,4.1-0.6,5.3-2.2
			c-0.2-0.5-0.7-0.8-1.2-0.9c0.6-0.8,1.6-1.3,2.3-2c0.8-0.7,1.5-1.6,1.3-2.6c0-0.4-0.2-0.8-0.1-1.1c0.1-0.2,0.3-0.4,0.6-0.5
			c2.2-1.4,4.7-2.3,7.2-2.7c-2.9,7.8-9.5,14.1-17.5,16.7"/>
		<path id="XMLID_239_" class="st9" d="M78.3,151.9c1.7,3.7,3.7,7.7,2.4,11.6c-1.4,4.2-2.6,7.7-1.7,12.3c0,0.2,0.1,0.3,0.2,0.4
			c0.3,0.4,1,0,1.4-0.3c2.8-1.7,4.5,2.7,7.7,0.2c1-0.8,2-1.7,3.2-1.4c1.1,0.2,3.5,0.9,4.3-0.3c0.6-0.8,0-1.8-0.4-2.7
			c-1.1-2.3-1.2-4.9-0.3-7.3c2.3-6,4.7-9.4,2.8-16.2"/>
		<path id="XMLID_173_" class="st10" d="M81.9,156.5c0,2.7,0.1,5.5-0.6,8.1c-0.8,3.1-2.6,6.3-1.5,9.3c0.1,0.2,0.2,0.4,0.3,0.5
			c0.5,0.4,1.2-0.2,1.9-0.2c1,0,1.7,1.5,2.6,1.1c0.4-0.2,0.5-0.8,0.4-1.2c-0.1-0.5-0.4-0.8-0.6-1.3c-1.3-2.4-0.1-5.2,0.7-7.8
			c0.7-2.2,1-4.6,1-6.9c0-0.5,0-1.1-0.3-1.5c-0.7-0.9-2.1-0.7-3.2-0.5"/>
		<path id="XMLID_172_" class="st10" d="M91.8,154.3c-0.3,3.1-1.4,6-2.2,9c-0.7,3-1.1,6.2,0.1,9.1c0.1,0.2,0.2,0.5,0.4,0.7
			c0.3,0.3,0.7,0.4,1,0.5c1,0.3,2,0.7,3.1,1c0.2-1.5-0.6-3-1-4.4c-0.9-3.4,0.2-6.9,1.8-10c0.5-0.9,1-1.8,1.3-2.8
			c0.3-1,0.2-2.1-0.3-3s-1.8-1.2-2.7-0.7"/>
		<path id="XMLID_238_" class="st0" d="M116.2,148.4c-3.6,4.7-9,5.4-14.5,5.8c-6.4,0.5-12.6,2.1-19,2.3c-2.6,0.1-6.4-0.1-7.8-2.9
			c-0.8-1.6-0.7-4.8,1.1-5.8c6.4-3.4,16-2.9,23.1-2.8c5,0.1,8.9,0.1,13.7-1.1c0.6-0.1,1.2-0.3,1.7,0
			C116.5,144.8,117.4,146.9,116.2,148.4z"/>
	</g>
</g>
<g id="Body">
	<g id="body_1_">
		<g id="outline">
			<g id="XMLID_143_">
				<path id="XMLID_182_" class="st11" d="M127,110.7c0.2,2.7-0.7,5.7-1.3,8.4c-1.8,7.8-5.4,15.1-8.9,22.3c-1.4,2.7-2.9,5.7-5.8,7
					c-1.7,0.8-3.7,0.9-5.7,1c-8,0.3-16,0.4-24,0.2c-1.8,0-3.7-0.1-5.5-0.6c-4.2-1.3-6.8-5.3-9.2-8.8C56.8,125.4,55,106.1,62,90
					c2.8,3.4,6.1,7.9,10.5,9.2c4.2,1.2,9.9,2.1,14.2,2.3c6.9,0.3,13.3-3.2,19.2-6.6c3.2-1.8,6.6-3.6,9.7-5.6
					c4.8-3.1,6.1-0.9,7.8,4.2C125.2,99.1,126.5,104.9,127,110.7z"/>
				<path id="XMLID_179_" class="st0" d="M71.7,144.4c-4.3-2.8-7.5-7.3-8.8-12.3c5.3,1.3,10.7,2.5,16,3.8c2.4,0.6,4.9,1.1,7.3,0.6
					c3.7-0.9,6.2-4.3,9.4-6.4c7.7-5.2,19-3.1,26-9.1c2,4.5,0.6,10.3-3.2,13.4c-0.3-1.8-2.9-1.7-4.6-1.1c-4.9,1.6-9.9,3.1-14.8,4.7
					c-0.2,4.5,2.8,8.4,6.9,10.1c-1.5,2-7.9,1.3-10.4,1c-3.8-0.5-7.1-1.6-11-1.1c-3.2,0.5-6.3,1.8-9.5,1.2c-3.2-0.5-6-4.3-4.1-6.9"/>
				<path id="XMLID_178_" class="st11" d="M57.3,111.3c-0.5,2.6,0.2,5.4,0.4,8c0.3,2.9,0.6,5.8,2.1,8.3c1.5,2.5,4.1,3.9,5.6,6.3
					c1.1,1.6,1.3,3.4,2.6,5c3.8,4.6,9.3,2.8,14,0.6c6.9-3.2,14-6.2,21.4-8.2c6.9-1.9,14.7-1.5,19.9-7.1c1.1-1.2,2.1-2.4,2.9-3.8
					c3-4.9,3-11.4,0.1-16.3"/>
				<path id="XMLID_175_" class="st0" d="M64.4,120.3c-1.7,0.1-3.4-0.5-4.6-1.7c-0.2,2.2-0.1,4.4,0.7,6.4c1.1,2.6,3.4,4.4,5.8,5.9
					c4.5,2.8,9.6,4.6,14.9,5.3c2,0.3,4.4,0.3,5.8-1.2c2.3-2.3,5.6-1.3,8.8-2.3c-3.3-2.2-5.5-6.9-3.3-10.2c0.8-1.2,2-1.9,3.3-2.7
					c9-5.6,16.5-8.7,27-6.1c0.4,0.1,0.9,0.3,1.1,0.7c0.2,0.5-0.1,1-0.3,1.4c-1,1.5-2,3.1-3,4.6c2.5-0.7,4.6-2.4,5.8-4.7
					c4-7.6-4.5-10.8-10.8-10.4c-8.5,0.5-16.3,4.6-23.8,8.2c-8.9,4.4-18.8,8.6-28.5,6.5"/>
				<path id="XMLID_174_" class="st11" d="M60.9,89.6c-2.2,5.7-3.9,11.6-5,17.6c-0.2,1.2-0.4,2.4-0.1,3.6c0.4,1.3,1.4,2.2,2.3,3.2
					c3.8,3.7,7.6,7.5,11.4,11.2c0.9,0.9,2,1.9,3.3,2.1c1.4,0.2,2.7-0.5,3.9-1.1c3.3-1.8,6.7-3.6,10-5.3c10.2-5.4,21-11,32.6-10.4
					c3.1,0.2,7.1,0.3,8.4-2.5c0.5-1,0.4-2.2,0.3-3.4c-0.5-5.8-1.4-11.5-2.8-17.1c-0.4-1.8-1.3-3.9-3.2-4.1c-1.2-0.1-2.2,0.7-3.1,1.4
					c-8.2,6.1-18.3,9-28.2,11.7c-5.1,1.3-10.3,2.7-15.6,2.2s-10.6-3-13.1-7.7c0.7-1,1.8-1.7,2.9-2"/>
				<path id="XMLID_171_" class="st0" d="M92.2,108.9c2.7-4.7,7.3-8.1,12.3-10.2c5-2.1,10.4-3.1,15.8-4c0.7-0.1,1.5-0.3,2.1-0.7
					c1.4-0.9,1.8-2.9,1.3-4.5c-0.5-1.6-1.7-2.9-2.9-4.1c-9.5,8.4-22.3,11.4-34.7,14.1c-7.4,1.6-18.2,2.5-23.2-4.6
					c-0.7-0.9-1.8-2.1-2.7-1.4c-0.3,0.3-0.4,0.7-0.5,1.2c-0.8,3.5-1.5,7-2.3,10.6c-0.3,1.5-0.6,3.1-0.1,4.5c0.6,1.6,2.2,2.6,3.6,3.6
					c1.3,0.8,2.7,1.7,4.2,2c1,0.2,1.9,0.2,2.9,0.3c3.5,0.5,6.5,2.8,9.9,3.5c2.4,0.5,7.4,0.5,9.6-0.9C90,116.5,90.7,111.5,92.2,108.9
					z"/>
				<path id="XMLID_170_" class="st11" d="M100,149.6c-4.5,0.4-8.9-1-13.4-0.6c-3.5,0.3-7.6,4.6-10.5,3.1c-2.6-1.3-6-8.6-7.3-11.1
					c-2.3-4.2-3.8-8.7-4.9-13.3c-1.8-7.8-1.8-15.6-2.5-23.4c-0.4-4.8-0.5-7.6,0.7-12.3c3.9,3,8,6.1,12.9,6.5c2,0.2,4-0.1,6-0.4
					c5.2-0.7,10.3-1.5,15.5-0.9c-2.2,2.7-3.8,6.3-5.3,9.5c-2,4-3.3,9-3.8,13.5c-0.6,4.9,0.1,10.2,2.9,14.3c1.8,2.6,4.3,4.6,6.4,6.9
					C98.7,143.5,100.4,146.5,100,149.6z"/>
				<path id="XMLID_161_" class="st0" d="M85.1,103c1.8-2.3,4.9-3.4,7.7-2.8c-3.8,7-6.1,14.9-6.5,22.9c-0.1,1.7-0.1,3.5,0.5,5.2
					c0.4,1.2,1.1,2.2,1.7,3.3c2.7,4.3,5.6,8.5,8.6,12.7c1.3,1.8,2.1,2.8,2.2,5c-2.5,1-5.1-1.3-6.9-3.3c-2-2.3-4.1-4.7-5.8-7.3
					c-4.7-7.4-6.2-16.8-3.9-25.2c0.9-3.3,2.3-6.7,1-9.9"/>
				<path id="XMLID_160_" class="st12" d="M122.7,92.9c2.1,3.4,3.1,7.4,2.7,11.3c-0.1,0.9-0.3,1.8-0.9,2.4c-0.6,0.6-1.4,0.8-2.2,1
					c-2.5,0.6-5.3,1.1-7.3-0.4c1.4-1.1,3-1.9,4.4-3c1.4-1.1,2.7-2.6,2.9-4.4c0.1-1-0.1-1.9,0-2.9s0.5-2,1.4-2.3"/>
				<path id="XMLID_159_" class="st12" d="M111.2,125c0.7-3.8,4.4-6.3,7.7-8.3c0.2-0.1,0.5-0.3,0.7-0.3c0.9-0.1,1.2,1.2,0.8,1.9
					c-0.4,0.8-1.2,1.2-1.7,1.9c-0.5,0.7-0.6,1.9,0.2,2.2c0.2,0.1,0.5,0.1,0.7,0.2c0.8,0.5,0.2,1.8-0.5,2.4c-2,1.7-4.7,2.8-7.4,2.9
					c-0.3,0-0.6,0-0.7-0.2c-0.1-0.2-0.1-0.5,0-0.7c0.2-0.6,0.4-1.2,0.6-1.8"/>
				<path id="XMLID_158_" class="st12" d="M107.3,145.7c-0.1,1.1,1.3,2,2.4,1.7c1.1-0.3,1.9-1.2,2.7-2.1c1.7-2,3.5-4.5,2.9-7.1
					c-0.4-0.4-1.1-0.2-1.5,0.1c-0.4,0.4-0.7,0.9-1,1.4c-0.9,1.2-2.3,2-3.8,2c-0.5,0-0.9-0.1-1.3,0c-0.9,0.2-1.4,1.1-1.5,2
					c-0.1,0.9,0.1,1.8,0.4,2.6"/>
				<path id="XMLID_152_" class="st13" d="M66.1,134.3c-2.3-3.7-3.6-7.9-3.8-12.2c5.9,6.9,14.2,11.8,23.1,13.7
					c1.6,0.3,3.3,0.6,4.8,1.2c4.7,1.9,7.2,6.9,9.3,11.5c-2.7,1.9-6.3-0.3-9.6-0.5c-3-0.2-5.9,1.3-8.6,2.7c-1.4,0.7-3.1,1.5-4.6,1
					c-1.8-0.5-2.8-2.4-3.6-4.2c-2.1-4.6-4.2-9.1-6.2-13.7"/>
			</g>
		</g>
		<g id="body">
		</g>
	</g>
	<g id="cape1">
		<g id="XMLID_8_">
			<path id="XMLID_79_" class="st4" d="M127,110.7c0.2,2.7-0.7,5.7-1.3,8.4c-1.8,7.8-5.4,15.1-8.9,22.3c-1.4,2.7-2.9,5.7-5.8,7
				c-1.7,0.8-3.7,0.9-5.7,1c-8,0.3-16,0.4-24,0.2c-1.8,0-3.7-0.1-5.5-0.6c-4.2-1.3-6.8-5.3-9.2-8.8C56.8,125.4,55,106.1,62,90
				c2.8,3.4,6.1,7.9,10.5,9.2c4.2,1.2,9.9,2.1,14.2,2.3c6.9,0.3,13.3-3.2,19.2-6.6c3.2-1.8,6.6-3.6,9.7-5.6c4.8-3.1,6.1-0.9,7.8,4.2
				C125.2,99.1,126.5,104.9,127,110.7z"/>
			<path id="XMLID_137_" class="st5" d="M71.7,144.4c-4.3-2.8-7.5-7.3-8.8-12.3c5.3,1.3,10.7,2.5,16,3.8c2.4,0.6,4.9,1.1,7.3,0.6
				c3.7-0.9,6.2-4.3,9.4-6.4c7.7-5.2,19-3.1,26-9.1c2,4.5,0.6,10.3-3.2,13.4c-0.3-1.8-2.9-1.7-4.6-1.1c-4.9,1.6-9.9,3.1-14.8,4.7
				c-0.2,4.5,2.8,8.4,6.9,10.1c-1.5,2-7.9,1.3-10.4,1c-3.8-0.5-7.1-1.6-11-1.1c-3.2,0.5-6.3,1.8-9.5,1.2c-3.2-0.5-6-4.3-4.1-6.9"/>
			<path id="XMLID_130_" class="st4" d="M57.3,111.3c-0.5,2.6,0.2,5.4,0.4,8c0.3,2.9,0.6,5.8,2.1,8.3c1.5,2.5,4.1,3.9,5.6,6.3
				c1.1,1.6,1.3,3.4,2.6,5c3.8,4.6,9.3,2.8,14,0.6c6.9-3.2,14-6.2,21.4-8.2c6.9-1.9,14.7-1.5,19.9-7.1c1.1-1.2,2.1-2.4,2.9-3.8
				c3-4.9,3-11.4,0.1-16.3"/>
			<path id="XMLID_145_" class="st7" d="M111.2,125c0.7-3.8,4.4-6.3,7.7-8.3c0.2-0.1,0.5-0.3,0.7-0.3c0.9-0.1,1.2,1.2,0.8,1.9
				c-0.4,0.8-1.2,1.2-1.7,1.9c-0.5,0.7-0.6,1.9,0.2,2.2c0.2,0.1,0.5,0.1,0.7,0.2c0.8,0.5,0.2,1.8-0.5,2.4c-2,1.7-4.7,2.8-7.4,2.9
				c-0.3,0-0.6,0-0.7-0.2c-0.1-0.2-0.1-0.5,0-0.7c0.2-0.6,0.4-1.2,0.6-1.8"/>
			<path id="XMLID_136_" class="st5" d="M64.4,120.3c-1.7,0.1-3.4-0.5-4.6-1.7c-0.2,2.2-0.1,4.4,0.7,6.4c1.1,2.6,3.4,4.4,5.8,5.9
				c4.5,2.8,9.6,4.6,14.9,5.3c2,0.3,4.4,0.3,5.8-1.2c2.3-2.3,5.6-1.3,8.8-2.3c-3.3-2.2-5.5-6.9-3.3-10.2c0.8-1.2,2-1.9,3.3-2.7
				c9-5.6,16.5-8.7,27-6.1c0.4,0.1,0.9,0.3,1.1,0.7c0.2,0.5-0.1,1-0.3,1.4c-1,1.5-2,3.1-3,4.6c2.5-0.7,4.6-2.4,5.8-4.7
				c4-7.6-4.5-10.8-10.8-10.4c-8.5,0.5-16.3,4.6-23.8,8.2c-8.9,4.4-18.8,8.6-28.5,6.5"/>
			<path id="XMLID_80_" class="st4" d="M60.9,91.5c-2.2,7.4-3.9,15.1-5,22.9c-0.2,1.6-0.4,3.2-0.1,4.7c0.4,1.6,1.4,2.9,2.3,4.1
				c3.8,4.9,7.6,9.7,11.4,14.6c0.9,1.2,2,2.5,3.3,2.8c1.4,0.3,2.7-0.6,3.9-1.4c3.3-2.3,6.7-4.6,10-6.9c10.2-7.1,21-14.3,32.6-13.5
				c3.1,0.2,7.1,0.4,8.4-3.3c0.5-1.3,0.4-2.9,0.3-4.4c-0.5-7.5-1.4-14.9-2.8-22.2c-0.4-2.3-1.3-5.1-3.2-5.3
				c-1.2-0.1-2.2,0.9-3.1,1.8c-8.2,8-18.3,11.8-28.2,15.2c-5.1,1.8-10.3,3.5-15.6,2.9c-5.3-0.6-10.6-3.9-13.1-10
				c0.7-1.3,1.8-2.2,2.9-2.6"/>
			<path id="XMLID_135_" class="st5" d="M105.2,101.4c1.2-0.3,2.6-0.6,4-0.7c0.7-0.1,1.4-0.1,1.9-0.5c3.2-2.2,2.5-5,7-5.6
				c2.9-0.4,7-0.3,5.5-5c-0.5-1.6-1.7-2.9-2.9-4.1c-9.5,8.4-22.3,11.4-34.7,14.1c-7.4,1.6-18.2,2.5-23.2-4.6
				c-0.7-0.9-1.8-2.1-2.7-1.4c-0.3,0.3-0.4,0.7-0.5,1.2c-0.8,3.5-1.5,7-2.3,10.6c-0.3,1.5-0.6,3.1-0.1,4.5c0.6,1.6,2.2,2.6,3.6,3.6
				c1.3,0.8,2.7,1.7,4.2,2c1,0.2,1.9,0.2,2.9,0.3c4.9,0.7,9.4,3.4,12.8,6.8c0.9,0.9,2.1,1.4,3.2,2.1c1.7,1.1,3.1,2.8,3.8,4.7
				c3.5,0.3,2.3-6.4,2.7-8.4C92.4,111.5,96.4,103.8,105.2,101.4z"/>
			<path id="XMLID_132_" class="st14" d="M79.6,150.7c2.3-0.9,4.8-2.7,7-3c4.5-0.4,8.9,1,13.4,0.6c0.4-3.1-1.3-6.1-3.4-8.5
				c-2.1-2.3-4.6-4.3-6.4-6.9c-2.8-4.1-3.5-9.3-2.9-14.3c0.5-4.4,1.8-9.4,3.8-13.5c1.6-3.2,3.1-6.8,5.3-9.5
				c-5.2-0.6-10.3,0.2-15.5,0.9c-2,0.3-4,0.6-6,0.4c-4.9-0.4-9-3.5-12.9-6.5c-1.2,4.7-1.2,7.5-0.7,12.3c0.7,7.9,0.7,15.7,2.5,23.4
				c1.1,4.6,2.7,9.2,4.9,13.3c1.4,2.5,4.7,9.8,7.3,11.1c2.6,1.3,7.6-1.4,10.6-1.3c2.8,0.1,5.5,0.2,8.3,0.3c1.1,0,2.2,0.1,3.1-0.4
				c1-0.5,1.6-1.4,1.4-2.5c-1.4,1.1-1.8,3-4,3.1"/>
			<path id="XMLID_147_" class="st10" d="M85.1,102.9c1.8-2.2,4.9-3.2,7.7-2.6c-3.8,6.7-6.1,14.2-6.5,21.8c-0.1,1.7-0.1,3.4,0.5,4.9
				c0.4,1.1,1.1,2.1,1.7,3.1c2.7,4.1,5.6,8.1,8.6,12.1c1.3,1.7,2.1,2.6,2.2,4.8c-2.5,0.9-5.1-1.2-6.9-3.2c-2-2.2-4.1-4.4-5.8-6.9
				c-4.7-7-6.2-16-3.9-24c0.9-3.1,2.3-6.4,1-9.4"/>
			<path id="XMLID_155_" class="st15" d="M72,126.3c-1.1-7.6-1.6-15.2-1.6-22.9c0-0.9,0.2-2.1,1-2.5c0.5-0.2,1.1-0.1,1.6,0.1
				c1.5,0.4,3,0.9,4.4,1.3c0.4,0.1,0.9,0.3,1.2,0.6c0.6,0.7,0.3,1.8-0.1,2.7c-1.8,4.3-2.5,9-2.2,13.6c0.1,0.9,0.3,2,1.1,2.3
				c0.5,0.2,1.1,0.1,1.6,0c2.2-0.6,4.2-2,5.7-3.8c0.4,1.7,0.8,3.5,0.4,5.3s-2.1,3.3-3.8,3c-0.9-0.1-2-0.7-2.7,0
				c-0.3,0.3-0.3,0.7-0.4,1.1c-0.8,7.2,3.1,14,6.9,20.3c-1.8,0.1-3-1.6-3.8-3.2c-2-3.8-4-7.7-6-11.5c-1.4-2.7-3.6-5.8-6.6-5.2
				c-0.9,0.2-1.9,0.6-2.6,0c-0.4-0.3-0.5-0.9-0.5-1.4c-0.2-1.5-0.4-3-0.6-4.5c1.3,1.9,3.6,3,5.9,2.8"/>
			<path id="XMLID_138_" class="st10" d="M62.9,118.3c-0.8-7.4-1.4-14.9-1.7-22.3c2.5,0.6,6.4,3.3,7.6,5.6c1.3,2.7-0.9,5.8-1,8.8
				c-0.2,3.7,0.7,7.3,1.6,10.9c2.4,9.3,4.1,20.8,12.5,27c-0.8,2-3.8,2.4-5.7,1.4c-1.9-1.1-3.1-3-4.1-4.9c-4.7-8.5-9.6-17.6-8.8-27.2
				"/>
			<g id="XMLID_133_">
				<path id="XMLID_168_" d="M74.1,110.3c0.4,0.1,0.7,0.1,1.1,0.1c0.4,0,0.7-0.1,1-0.2c0.3-0.1,0.7-0.2,1-0.4
					c0.3-0.2,0.6-0.3,0.9-0.5c1.1-0.8,2.1-1.9,3.2-3c1-1.1,2.2-2.1,3.3-3.1l1.8-1.4c0.6-0.5,1.2-0.9,1.8-1.4l0.8-0.7l-0.2,1
					c-0.1,0.7-0.2,1.4-0.4,2c-0.2,0.7-0.4,1.3-0.6,2c-0.4,1.3-0.9,2.6-1.4,3.8c-0.5,1.3-1,2.5-1.4,3.7c-0.2,0.6-0.4,1.2-0.6,1.8
					c-0.2,0.6-0.3,1.2-0.3,1.9l-0.2,1.9c-0.1,0.7-0.1,1.3-0.2,2c-0.1,1.3-0.3,2.7-0.3,4c-0.2,2.6-0.2,5.2,0.4,7.9l-0.2,0.1
					c-0.7-1.2-1.2-2.5-1.5-3.9c-0.3-1.4-0.4-2.8-0.5-4.1c-0.1-1.4,0-2.7,0.1-4.1c0-0.7,0.1-1.4,0.1-2c0.1-0.7,0.1-1.4,0.3-2.1
					c0.1-0.7,0.3-1.4,0.5-2.1c0.2-0.7,0.5-1.3,0.7-2c0.6-1.3,1.3-2.5,2-3.6c0.7-1.2,1.4-2.3,1.9-3.5c0.3-0.6,0.5-1.2,0.7-1.9
					c0.2-0.6,0.3-1.3,0.3-1.9l0.6,0.3c-0.5,0.5-1,1.1-1.5,1.7l-1.5,1.7c-1,1.1-2.1,2.2-3.2,3.2c-1.1,1-2.2,2.1-3.7,2.9
					c-0.4,0.2-0.7,0.3-1.2,0.5c-0.4,0.1-0.8,0.2-1.2,0.2c-0.4,0-0.8,0-1.2-0.1c-0.4-0.1-0.8-0.3-1.1-0.5L74.1,110.3z"/>
			</g>
			<g id="XMLID_134_">
				<path id="XMLID_165_" d="M66.2,100.8c-0.6-0.5-1.2-1.1-1.7-1.6l0.8-0.2c0,0.9,0,1.7,0,2.6c0,0.9,0.1,1.7,0.2,2.6l0.3,2.6
					c0.1,0.9,0.2,1.8,0.2,2.6c0.1,0.9,0.2,1.8,0.2,2.7c0.1,0.9,0.3,1.8,0.4,2.6c0.4,1.7,0.9,3.5,1.5,5.2c0.6,1.7,1,3.4,1.5,5.1
					l0.8,2.5c0.2,0.9,0.5,1.7,0.7,2.6l1.4,5.1l0.7,2.6c0.2,0.9,0.5,1.7,0.7,2.6l-0.2,0.1c-1-1.5-1.9-3.1-2.6-4.8
					c-0.7-1.6-1.4-3.3-1.9-5c-0.6-1.7-1-3.5-1.3-5.2c-0.4-1.8-0.7-3.5-0.9-5.3l-0.3-2.7c-0.1-0.9-0.3-1.8-0.4-2.6
					c-0.2-0.9-0.4-1.7-0.6-2.6l-0.8-2.6c-0.3-0.9-0.5-1.7-0.7-2.6c-0.2-0.9-0.2-1.8-0.3-2.7c-0.1-1.8,0.1-3.7,0.6-5.5l0.3-1.1
					l0.5,0.9c0.4,0.7,0.8,1.4,1.1,2.1L66.2,100.8z"/>
			</g>
			<path id="XMLID_146_" class="st7" d="M107.3,145.7c-0.1,1.1,1.3,2,2.4,1.7c1.1-0.3,1.9-1.2,2.7-2.1c1.7-2,3.5-4.5,2.9-7.1
				c-0.4-0.4-1.1-0.2-1.5,0.1c-0.4,0.4-0.7,0.9-1,1.4c-0.9,1.2-2.3,2-3.8,2c-0.5,0-0.9-0.1-1.3,0c-0.9,0.2-1.4,1.1-1.5,2
				c-0.1,0.9,0.1,1.8,0.4,2.6"/>
			<path id="XMLID_149_" class="st16" d="M66.1,134.3c-2.3-3.7-3.6-7.9-3.8-12.2c5.9,6.9,14.2,11.8,23.1,13.7
				c1.6,0.3,3.3,0.6,4.8,1.2c4.7,1.9,7.2,6.9,9.3,11.5c-2.7,1.9-6.3-0.3-9.6-0.5c-3-0.2-5.9,1.3-8.6,2.7c-1.4,0.7-3.1,1.5-4.6,1
				c-1.8-0.5-2.8-2.4-3.6-4.2c-2.1-4.6-4.2-9.1-6.2-13.7"/>
			<path id="XMLID_144_" class="st7" d="M103.8,119.8c2.6-1.6,5.5-2.6,8.5-3c1.7-0.2,3.7-0.4,4.3-1.9c0.4-1-0.1-2.2-0.6-3.2
				c-1.2-2.2-2.5-4.4-3.8-6.6c0.3,2.5-1.5,4.7-3.1,6.6c-2.3,2.6-4.6,5.2-6.9,7.7c0.3,0.3,0.8,0.5,1.2,0.5"/>
			<path id="XMLID_127_" class="st0" d="M63.5,96c-2.1-1.9-5.1-5.6-4-7.5c1.2-2.3,6.8,0,17.5,0c4.7,0,10.3,0,16.5-2
				c2.3-0.7,4.4-1.6,17-9.5c4.1-2.5,10.2-8.3,14.9-8.9c3.8-0.5-0.7,15.7-1.4,16.9c-9.6,16.9-36.4,16.2-45.5,16
				C74.4,100.9,68.3,100.4,63.5,96z"/>
			<linearGradient id="XMLID_120_" gradientUnits="userSpaceOnUse" x1="59.0811" y1="87.9188" x2="128.6988" y2="87.9188">
				<stop  offset="0" style="stop-color:#9C83A9"/>
				<stop  offset="1" style="stop-color:#7D6478"/>
			</linearGradient>
			<path id="XMLID_78_" class="st17" d="M61.3,94.9c-0.7-1.3-1.7-2.5-2.1-4c-0.4-1.5,0.1-3.3,1.5-3.9c1-0.4,2.2,0.1,3,0.8
				c3.6,3.1,10.1,7.8,15,9.1c3.8,1,7.7-0.6,11.3-2.1c6.5-2.8,13.2-5.2,19.5-8.3c7.8-3.8,11.5-11.8,17.4-17.6
				c0.9,3.8,2.8,10.4,1.2,14.1c-1,2.3-2.7,4.1-4.5,5.9c-2.8,2.9-5.1,5.6-9,6.9c-9.2,3.2-19.3,3.5-28.1,7.8c-2.3,1.1-4.5,2.5-7,3
				c-4.3,0.9-8.4-1-11.9-3.3C63.2,100.6,63.5,99.2,61.3,94.9z"/>
			<path id="XMLID_68_" class="st2" d="M61.3,94.9c-0.7-1.3-1.7-2.5-2.1-4c-0.4-1.5,0.1-3.3,1.5-3.9c1-0.4,2.2,0.1,3,0.8
				c3.6,3.1,10.1,7.8,15,9.1c3.8,1,7.7-0.6,11.3-2.1c6.5-2.8,13.2-5.2,19.5-8.3c7.8-3.8,11.5-11.8,17.4-17.6
				c0.9,3.8,2.8,10.4,1.2,14.1c-1,2.3-2.7,4.1-4.5,5.9c-2.8,2.9-5.1,5.6-9,6.9c-9.2,3.2-19.3,3.5-28.1,7.8c-2.3,1.1-4.5,2.5-7,3
				c-4.3,0.9-8.4-1-11.9-3.3C63.2,100.6,63.5,99.2,61.3,94.9z"/>
			<path id="XMLID_71_" class="st0" d="M125.6,69.3c0.4,0.8,0.9,1.5,1.3,2.3c0.2,0.4,0.4,0.8,0.4,1.3c0,0.6-0.3,1.1-0.7,1.5
				c-2.1,3-4.3,6-6.4,9c1.9-1.2,3.6-2.6,5.1-4.3c0.9-1,1.8-2.2,2.2-3.6c0.4-1.4,0.1-2.9-1-3.9"/>
			<path id="XMLID_72_" class="st0" d="M59.8,88.8c0.7-0.4,1.6-0.1,2.3,0.4c2.8,1.8,4.8,4.6,7.2,7c2.4,2.4,5,3.9,8.3,4.5
				c-1.2,1.2-3.1,0.5-4.6-0.4c-1.6-0.9-3.1-2-4.2-3.5c-0.8-1-1.3-2.2-2.2-3.1s-2-1.8-3.2-1.8c1.2,2.9,2.5,5.8,4,8.6
				C66.2,99.4,57.2,90.3,59.8,88.8z"/>
			<path id="XMLID_74_" class="st18" d="M126.4,72c-0.5,2.7-2.2,5.1-4,7.2c-7.5,8.6-17.4,14.9-28.4,18.1c1.8,0.2,3.7,0,5.5-0.5
				c-2,1.5-4.2,2.6-6.6,3.3c6.1-1.3,12.2-2.6,18.3-3.9c0.8-0.2,1.7-0.4,2.5-0.7c0.8-0.4,1.5-1,2.1-1.6c3-2.8,6-5.7,8.8-8.7
				c1.7-1.8,3.5-4.2,2.9-6.6c-3,2.2-5.9,4.5-8.9,6.7c0.5-1.1,1-2.2,1.6-3.3"/>
			<path id="XMLID_75_" class="st18" d="M66,101.7c-1.3-2.6-2.6-5.2-3.9-7.9c2.4,1.7,4.7,3.4,7.1,5.1c-1.8-1.9-3.3-4.1-4.3-6.5
				c3.6,2.8,5.9,7.3,10,9.3c2.9,1.4,6.5,1.4,9.3,0c-2.4,2.7-6.3,4-9.8,3.1c0.6,0.7,1.4,1.2,2.3,1.3c-2.1,0.8-4.5-0.2-6.4-1.4
				c-2.1-1.4-4.1-3-5.8-4.9"/>
		</g>
	</g>
</g>
<g id="thigh">
	<g id="XMLID_7_">
		<path id="XMLID_148_" class="st3" d="M118.4,162c1,3.5,5.5,6.5,0.4,8.3c-5.5,2-10.6,3.3-16.9,1.3c-0.2-0.1-0.4-0.1-0.6-0.3
			c-0.2-0.2-0.1-0.4-0.1-0.6c0.5-2.9-1.2-5.1-1.4-7.8c-0.2-2.5,0.8-9.3,3.1-10.5c2-1.1,6.8,0,9.2,0c0.3,0,0.7,0,1,0.2
			c0.3,0.2,0.5,0.4,0.7,0.7C115.7,156,117.5,158.9,118.4,162z"/>
		<path id="XMLID_297_" class="st7" d="M102.3,157c4.8-1.5,7.1-0.7,8.3,0.3c2.7,2.2,1.3,6.9,4.8,9.3c0.8,0.5,2.3,1.3,3,0.8
			c1.4-1.1-1.2-6.9-4-10.8c-1.5-2.1-2.5-2.7-3.3-3c-2.8-1.2-5.6-0.1-6.5,0.3"/>
		<path id="XMLID_303_" class="st5" d="M103.5,171c-0.1,0-0.3-0.2-0.4-0.8c-0.6-1.5-1.3-3.7-1.9-6.4c-0.4-1.8-0.7-3.3-0.3-3.5
			c0.6-0.2,2.2,2,3.3,4c1,2,1.7,4.5,1.8,4.5l0,0C106,168.8,104.2,171.3,103.5,171z"/>
	</g>
</g>
<g id="leg">
	<g id="XMLID_6_">
		<path id="XMLID_150_" class="st0" d="M120.1,173.3c-0.3-0.9-1-1.7-2.2-2.2c-3.6-1.4-11.3,3.1-11.8,6.9c-0.5,3.8,1.1,6.8,1.8,10.3
			c0.1,0.7,0,1.5,0.1,2.2c0.1,1.6,1.1,3.1,2.5,3.8C117.7,198.2,121.6,177.6,120.1,173.3z"/>
		<path id="XMLID_291_" class="st3" d="M105.4,178.3c-0.1-1.5-0.2-3-0.4-4.5c0-0.3,0-0.6,0.1-0.9c0.1-0.2,0.3-0.4,0.6-0.5
			c1.2-0.7,2.3-1.5,3.5-2.2c1.4-0.9,2.8-1.7,4.4-2.2s3.4-0.5,4.8,0.3c2.7,1.6,3.1,5.2,3.2,8.4c0,0.4,0,0.9-0.2,1.2
			c-0.2,0.2-0.4,0.4-0.6,0.5c-1.2,0.6-2.3,1.3-3.5,1.9c-0.7,0.4-1.5,0.8-2.3,0.9c-1.6,0.3-3.1-0.5-4.5-1.1c-1.8-0.9-3.6-1.8-5.4-2.6
			"/>
		<path id="XMLID_305_" class="st5" d="M106.8,174.1c-2.9,3,4.4,7.3,6.2,5.7c2-1.7,1.8-9.4-1.3-9.8c-0.8-0.1-3,2.4-3.9,3.1
			C107.5,173.5,107.1,173.8,106.8,174.1z"/>
		<path id="XMLID_307_" class="st7" d="M117.3,178.3c0.8,0.4,2.4-1,3-2.3c1.4-2.9-1.1-6.7-2.3-6.5
			C116.5,169.7,115.5,177.5,117.3,178.3z"/>
	</g>
</g>
<g id="shoe">
	<g id="XMLID_5_">
		<path id="XMLID_294_" class="st3" d="M119.1,190.3c-0.6,2.9-1.7,6.4-3.8,7.2c-3.2,1.1-8.1-2.5-7-5.9c1-3.1,7.3-4.7,9.8-5.9
			c0.3-0.1,0.6-0.3,0.9-0.2c0.7,0.1,0.8,1.2,0.7,1.9C119.5,188.1,119.3,189.2,119.1,190.3z"/>
		<path id="XMLID_308_" class="st7" d="M114.5,189.1c-2.1,2.6-2.5,5.2-1.5,6.3c0.6,0.7,1.7,0.7,2.5,0.5c2.1-0.6,3.4-4.1,3.3-8.8"/>
	</g>
</g>
<g id="head_hit">
	<g id="XMLID_4_">
		<g id="XMLID_414_">
			<path id="XMLID_471_" class="st19" d="M88.6,15.8c-21,0-38,17.7-38,39.5c0,11.6,5.8,25.9,15.3,33.1c4.5,3.4,10.7,3.8,16.3,3.3
				c11.3-1.1,22.3-5.5,31.2-12.6c0.3-0.2,1.1-1.2,1.4-1.4c0.8-0.8,1.6-1.6,2.4-2.4c4.1-4.4,9-10.5,9.5-16.8
				c0.6-6.8-1.2-14.5-4.1-20.6C116.5,24.7,103.3,15.8,88.6,15.8z"/>
			<path id="XMLID_468_" d="M77.7,67.9c2-2,3.9-3.9,5.9-5.9c6.1-6.1,12.3-12.4,16.7-19.8c-0.8-0.1-1.5-0.2-2.3-0.3
				c4.6-3.4,10.6-4.7,16.2-3.7c-0.8-4.4-1.6-8.9-2.4-13.3c3.3,2.2,6,5.3,7.7,8.9c-0.7-0.1-1.3-0.2-2-0.3c0.1,6.4,0.2,12.8,0.4,19.1
				c1.5-0.9,3.1-1.8,4.6-2.6c-0.7,3.8-3.4,7-6.5,9.2s-6.9,3.5-10.5,4.8c-9.6,3.3-19.5,6.1-29.7,6.8c1.2-1.1,2.2-2.4,2.9-3.9"/>
			<path id="XMLID_467_" class="st19" d="M62.5,67.5c-4.4-1.6-5.8-7.2-9.6-9.9C52,60,52,62.7,53.1,65.1c0.7,1.5,1.1,2.1,2.1,3.4"/>
			<path id="XMLID_466_" class="st19" d="M60,67.7c-3.4-1.3-4.4-5.6-7.3-7.7c-0.7,1.9-0.7,4,0.1,5.8c0.5,1.2,0.8,1.7,1.6,2.7"/>
			<path id="XMLID_465_" class="st19" d="M79.6,67.3C89.1,62,95.9,51,105.2,45.1c1-0.7,2.1-1.3,3.2-1.3c3.7-0.2,6.8,5.2,5.1,9.5
				c0.1,0.7,0.4,0.5,0,1c-0.2,2.2-1.3,3.5-2.7,4.8"/>
			<path id="XMLID_464_" class="st19" d="M79.6,67.3c9.5-4.1,16.3-12.8,25.6-17.5c1-0.5,2.1-1,3.2-1c3.7-0.2,6.8,4.1,5.1,7.5
				c0.1,0.5,0.4,0.4,0,0.8c-0.2,1.7-1.3,2.8-2.7,3.8"/>
			<path id="XMLID_463_" class="st19" d="M73.1,19.1c-5,8.4-6.7,18.3-8,27.9c-1,7.7-1.8,15.6,0,23.2c1.8,7.6,6.5,14.9,13.8,18.2"/>
			<g id="XMLID_459_">
				<path id="XMLID_462_" d="M51.8,64.7c1.8,2.4,5.1,3,8.1,3.3c12.6,1.1,25.1-1.3,37-5c6.1-1.9,12-4.1,17.9-6.5
					c4.4-1.7,7.2-2,10.6-5.4c0.8,0.7,1.3,1.7,1.6,2.7c2.6,7-1.2,14.7-5.9,20.5c-3.7,4.4-8,8.3-12.8,11.4
					c-7.1,4.6-15.1,7.7-23.1,10.6c-6.3,2.3-7.3,0.4-11.5-3.2c-4.1-3.5-9.4-5.2-13.3-9.2c-4-4.2-6.6-9.5-9.1-14.7
					c-0.6-1.3-0.2-2.3-0.2-3.8"/>
				<path id="XMLID_461_" d="M51.8,64.7c1.1,1.2,2.6,1.9,4.1,2.3c1.5,0.3,3.1,0.4,4.7,0.4c1.6,0,3.2,0,4.8-0.1
					c1.6-0.1,3.2-0.2,4.8-0.4c1.6-0.2,3.2-0.4,4.7-0.7c1.6-0.3,3.2-0.4,4.7-0.7c3.1-0.5,6.3-1.2,9.4-2c6.2-1.6,12.3-3.6,18.3-5.9
					l4.5-1.7c1.5-0.6,3-1.2,4.6-1.8c1.6-0.5,3.1-1,4.4-1.7c1.3-0.6,2.5-1.5,3.5-2.6l1-1l1,1c1.2,1.2,1.8,2.5,2.2,3.9
					c0.1,0.3,0.2,0.6,0.3,0.9l0.2,1.1c0.1,0.7,0.2,1.4,0.2,2.1c0.1,2.7-0.4,5.4-1.4,7.8c-0.9,2.5-2.2,4.7-3.7,6.8
					c-1.5,2.1-3.1,4-4.9,5.9c-1.8,1.8-3.6,3.5-5.6,5.1c-2,1.6-4.1,3.1-6.2,4.4c-2.2,1.3-4.4,2.5-6.7,3.6c-2.3,1.1-4.6,2.1-6.9,3
					c-2.3,0.9-4.6,1.8-7,2.7c-0.6,0.2-1.1,0.4-1.8,0.7c-0.6,0.2-1.2,0.4-1.9,0.6c-1.3,0.3-2.8,0.5-4.4,0.1c-1.6-0.4-2.8-1.4-3.7-2.2
					c-1-0.8-1.9-1.7-2.8-2.4c-1.8-1.5-3.9-2.7-6-3.9c-1.1-0.6-2.2-1.3-3.3-2c-1.1-0.7-2.1-1.6-3-2.6c-1.8-1.9-3.2-4.1-4.5-6.3
					c-1.2-2.2-2.3-4.5-3.3-6.8C52,71.4,51.5,70.2,51,69c-0.2-0.6-0.3-1.3-0.2-1.9c0.1-0.6,0.2-1.2,0.2-1.8c0.1,1.2-0.2,2.5,0.4,3.6
					l1.8,3.2c1.2,2.1,2.5,4.2,3.9,6.2c1.4,2,3,3.8,4.8,5.3c0.9,0.7,1.9,1.4,2.8,2c1,0.7,2,1.3,3,1.9c2.1,1.2,4.4,2.5,6.4,4.2
					c1,0.8,1.9,1.7,2.8,2.4c0.9,0.8,1.7,1.4,2.6,1.6c0.8,0.2,1.8,0.1,2.9-0.1c0.5-0.1,1-0.3,1.6-0.5c0.5-0.2,1.1-0.4,1.7-0.6
					c2.3-0.9,4.6-1.7,6.9-2.7c2.3-0.9,4.5-1.9,6.7-2.9c2.2-1,4.3-2.2,6.4-3.4c2.1-1.3,4-2.6,5.9-4.2c1.9-1.5,3.7-3.1,5.3-4.9
					c1.7-1.7,3.3-3.6,4.6-5.5c1.3-1.9,2.5-4,3.3-6.2c0.8-2.2,1.3-4.4,1.2-6.7c0-0.5-0.1-1.1-0.2-1.6l-0.1-0.8
					c-0.1-0.3-0.2-0.6-0.3-0.9c-0.3-1-0.8-2-1.4-2.5l2.1,0c-1.2,1.2-2.7,2.4-4.3,3.1c-1.6,0.8-3.2,1.3-4.7,1.8
					c-1.5,0.5-3,1.1-4.5,1.7l-4.6,1.7c-6.1,2.3-12.3,4.4-18.6,6c-3.2,0.8-6.4,1.5-9.6,2c-0.8,0.1-1.6,0.3-2.4,0.4
					c-0.8,0.1-1.6,0.2-2.5,0.3c-1.6,0.1-3.3,0.1-4.9,0.1c-1.6,0-3.3,0-4.9-0.2c-1.6-0.1-3.3-0.3-4.9-0.5c-1.6-0.2-3.3-0.5-4.8-1.1
					C54.1,67,52.6,66.1,51.8,64.7z"/>
			</g>
			<path id="XMLID_458_" class="st8" d="M113.3,76.8c-0.7,1-1.8,1.7-3,1.8c1.4-3.4,1.8-7.1,2.3-10.7c0.4-2.7,1-5.7,3.3-7.3
				c0.8,1.6,0.6,3.5,0.3,5.3c-0.2,1.5-0.4,3.1-0.7,4.6C115.1,72.8,114.8,75.1,113.3,76.8"/>
			<path id="XMLID_455_" d="M78,72.8c0-0.9,0.2-1.9,0.9-2.4c0.6-0.5,1.5-0.6,2.3-0.6c0.4,0,0.7,0,1,0.2c0.5,0.3,0.7,0.8,1,1.4
				c1.6,4.2,0.1,8.2-0.9,12.4c-0.5,2.2-2.1,4.3-3.2,6.3c-0.2,0.5-0.8,1-1.2,0.6c-0.3-0.2-0.2-0.6-0.1-1c0.8-2.8,1.6-5.6,1.8-8.5
				c0.1-1.5,0.1-3.1-0.3-4.6C79,75.3,78,74.2,78,72.8z"/>
			<path id="XMLID_452_" d="M104.9,67.2c-0.1-1.6,0.8-3.1,2.1-4.2s2.9-1.8,4.6-2.4c0.4-0.1,0.8-0.2,1,0.1c0.1,0.2,0.1,0.4,0,0.6
				c-0.4,1.5-1.3,2.9-1.8,4.4c-1.4,3.7-1,7.8-2.1,11.6c-0.4,1.2-0.9,2.5-1.9,3.4c-1,1-2.4,1.6-3.9,1.5c2.4-4.9,3.3-10.4,2.6-15.6"/>
			<path id="XMLID_449_" d="M90.8,73c0.1-0.9-1-1.4-1.3-2.3c-0.3-1.1,0.9-2,1.9-2.5c1.4-0.7,2.8-1.3,4.3-1.9c0.5-0.2,1-0.4,1.4-0.3
				c0.8,0.2,1.2,1,1.5,1.8c1.3,3.9,0.9,8.3-0.9,12c-1.8,3.7-5,6.7-8.7,8.4c1.6-1.6,2.4-3.8,2.8-6c0.3-2.2,0.2-4.5,0.1-6.7
				c-0.1-1.3-0.3-2.8-1.3-3.6"/>
			<path id="XMLID_448_" class="st8" d="M90.1,86.5c-0.1,0.8-0.6,1.6-1.4,2c-0.1-4-0.4-8-0.9-11.9c-0.2-1.9-0.5-4,0.7-5.4
				c0.9-1.1,2.4-1.6,3.6-2.4c0.6,0.5,0.7,1.5,0.7,2.3c0,2.4,0,4.7-0.1,7.1c0,3.1-0.2,6.4-2.3,8.6"/>
			<path id="XMLID_445_" d="M118.5,58.6c0.4-0.9,1-1.8,1.8-2.4c0.8-0.6,2-0.7,2.8,0c0.4,0.4,0.6,0.9,0.8,1.4
				c0.7,2.4,0.1,4.9-0.6,7.3c-0.5,1.6-1,3.2-1.6,4.7c-0.6,1.6-1.3,3.1-2.4,4.4c-1.5,1.7-3.8,2.7-5.9,3.5c2.9-6.1,4.9-12.7,5.8-19.4"
				/>
			<path id="XMLID_444_" class="st8" d="M104.1,80c-0.3,1.4-1.8,2.4-3.1,2.1c1.1-3.8,0.6-7.9,0.4-11.9c0-0.7-0.1-1.4,0.2-2
				c0.3-0.8,1-1.4,1.6-1.9c0.5-0.4,1.1-0.9,1.8-0.7c0.8,0.2,1.1,1.2,1.2,2.1c0.3,2.6,0.6,5.2-0.2,7.7c-0.5,1.5-1.3,3-1.5,4.6"/>
			<path id="XMLID_441_" d="M53,69c0.3,0.7,0.7,1.3,1,2c-0.5-1.6-1-1.5-1.5-3c2,1.3,4.2,2.1,6.5,2.4c1,0.2,2.1,0.2,3,0.7
				c1.1,0.6,1.7,1.8,2.3,3c0.9,1.8,1.7,3.6,2.4,5.4c0.4,1.1,0.8,2.2,1.3,3.2c1.6,3.6,4.1,6.8,7.1,9.4c-0.4,0.5-1.1,0.1-1.6-0.3
				c-3.3-2.5-6.5-5-9.8-7.5c-1.9-1.4-3.7-2.8-5.3-4.6c-2.3-2.5-3.9-5.5-4.6-8.8"/>
			<path id="XMLID_440_" class="st19" d="M74.1,93.4c3.7,0,7.3-0.9,10.8-1.8c5.9-1.5,11.7-3.3,17.3-5.5c5-1.9,9.8-3.8,14.1-7.1"/>
			<path id="XMLID_439_" class="st20" d="M87.7,68c9.2-3.5,18.5-7,27.6-10.6c3.1-1.2,6.2-2.5,9.3-3.8c0.6,1.9,0.8,3.9,0.6,5.9
				c0-1.5-1.7-2.5-3.2-2.2s-2.7,1.2-3.9,2.1c-6.9,5.1-15.4,7.4-23.8,9.4c-3.2,0.8-6.7,1.7-8.8,4.3c-0.4-1.3-0.3-2.7,0.4-3.8
				c0.7-1.1,2.1-1.8,3.4-1.7"/>
			<path id="XMLID_438_" class="st8" d="M78.2,88.8c0.1,0.7,0.1,1.4,0,2c-2.7-4.1-1.4-8.3-1.8-12.9c-0.2-1.9-0.7-4.7,0.9-6.3
				c1.9-2,3,0.4,3.1,2.2c0.1,1.5,0.1,3,0.1,4.4c0,1.4,0,2.7-0.3,4.1c-0.5,2.3-1.7,4.5-1.6,6.9c-0.1-0.1-0.2-0.3-0.2-0.4"/>
			<path id="XMLID_437_" class="st19" d="M66.9,73.1c-0.1,0-0.2,0-0.3,0c2,0,3-0.3,5.1-0.4c0.1,0,0.2,0,0.3,0.1
				C72,72.9,72,73,72,73.2c0.7,5.5,1.4,11,2,16.5c-2.5-0.9-3.8-3.7-4.6-6.3c-1.1-3.2-2.1-6.4-3.1-9.6c-0.4-0.3-0.3-0.6,0.2-0.9"/>
			<path id="XMLID_436_" class="st19" d="M78.5,72c0.8-1.7,2.7-1.9,3.4-0.3c1.7,3.8-2.8,18.6-3.9,17.9c-0.4-0.2,0-2.1,0-11.1
				C78,74.9,77.9,73.2,78.5,72z"/>
			<path id="XMLID_435_" class="st19" d="M118.1,73.2c1.9-2.8,3.2-6.4,3.8-8.4c0.3-1.2,0.8-6.7-0.8-7.2c-0.3-0.1-0.7,0-1,0.1
				c-1.1,0.3-2.2,0.6-3,1.3c-2,1.6-1.8,6.4-2.3,8.7c-0.7,3.2-1.8,6.3-2.9,9.4C114.3,77.6,116.5,75.7,118.1,73.2z"/>
			<path id="XMLID_434_" class="st19" d="M102.7,81.1c2.1-4.4-0.4-9.5,1-14c0.2-0.7,0.8-1.3,1.4-1.8c1.6-1.5,3.4-2.7,5.3-3.5
				c-1.8,0.8-3.7,14.9-4.3,17C105.6,80.2,104.1,81.7,102.7,81.1z"/>
			<path id="XMLID_433_" class="st19" d="M90.2,71c1.6-1.4,3.4-2.5,5.4-3.2c0.3-0.1,0.5-0.2,0.8-0.1c0.5,0.1,0.8,0.8,0.8,1.3
				c0.3,1.8,0.1,3.6-0.1,5.4c-0.2,1.7-0.5,3.4-1.1,5c-0.7,1.9-1.9,3.5-3.2,5c-0.4,0.5-3.2,2.6-3.2,3.1c0.5-4.4,0.9-8.2,0.3-12.7
				c-0.2-1.6-0.3-3.6,1.1-4.4"/>
			<path id="XMLID_432_" class="st19" d="M55.7,71.8c1.1,0.7,2.3,1.4,3.7,1.5c0.5,0,0.9,0,1.3,0.2c0.5,0.3,0.8,0.8,1,1.3
				c1.4,3.5,2.7,7.2,4.9,10.2c-2.9-0.9-5-3.5-6.8-6c-1.3-1.8-3.6-4.4-3.8-6.8"/>
			<path id="XMLID_431_" class="st19" d="M113.5,56.7c2.9-10.8,1.9-22.6-2.7-32.7"/>
			<g id="XMLID_427_">
				<path id="XMLID_430_" d="M125,42.8c-1.8-10.7-6.2-21.2-14.2-28.5s-22-14.1-30-6.9c-6.9,6.2-11.2,15-13.6,24
					c-2.4,9-3,18.4-3.6,27.7c0,0.2,0,0.5-0.1,1c-0.1,3.7,0.6,6.8,1.3,8.9c1.1-0.3,2.6-0.8,3.1-2.2c0.5-1.3,0.4-2.7,0.4-4.1
					c-0.4-9.3,0.6-18.7,3.5-27.5c1.6-4.9,3.3-9.9,6.4-14.1c4.4-5.9,9.1-5.5,16-5.7c0.6,0,1.5,0.2,1.4,0.8c0.1-0.8,7.7,2.8,8.2,3.1
					c4.8,2.4,9.4,5.4,13,9.5c3.8,4.2,4.8,9.2,7.8,13.6"/>
				<path id="XMLID_429_" d="M124.8,42.9c-0.7-2.7-1.4-5.3-2.4-7.8c-0.9-2.5-2-5-3.3-7.4c-1.3-2.4-2.7-4.6-4.3-6.7
					c-1.6-2.1-3.5-4-5.4-5.7c-1.1-0.9-2.1-1.7-3.2-2.4c-1.1-0.8-2.2-1.5-3.3-2.2c-2.3-1.3-4.7-2.4-7.1-3.3c-2.4-0.8-5-1.3-7.4-1.2
					c-2.4,0.1-4.8,0.9-6.6,2.4c-0.5,0.5-1.1,0.9-1.5,1.4c-0.5,0.4-0.9,0.9-1.4,1.4c-0.9,0.9-1.8,2-2.6,3c-1.7,2.1-3.1,4.4-4.4,6.8
					c-1.3,2.4-2.3,4.9-3.2,7.5c-0.8,2.6-1.5,5.2-2.1,7.9c-1,5.4-1.5,10.8-1.8,16.3l-0.2,4.1c0,1.4-0.1,2.8-0.1,4.1
					c0.1,2.6,0.6,5.2,1.5,7.6l-1.8-0.9c0.7-0.2,1.2-0.5,1.6-0.7c0.2-0.1,0.3-0.3,0.4-0.4c0-0.1,0.1-0.1,0.1-0.2l0,0c0,0,0,0,0,0l0,0
					l0-0.1l0-0.1l0-0.2c0.3-1,0.1-2.4,0-3.9c-0.1-1.5-0.1-3-0.1-4.5c0-1.5,0-3,0.1-4.5c0.3-6,1.4-12.1,3.1-17.9
					c0.9-2.9,1.8-5.7,3.1-8.6c0.6-1.4,1.3-2.8,2.1-4.2c0.8-1.4,1.8-2.7,2.9-3.9c1.2-1.3,2.6-2.4,4.2-3.1c1.6-0.8,3.3-1.2,4.9-1.4
					c1.6-0.2,3.2-0.2,4.6-0.2l2.2,0l0.6,0c0.4,0,0.7,0.1,1,0.1c0.3,0.1,0.7,0.2,1.2,0.6c0.2,0.2,0.5,0.5,0.7,0.9
					c0.2,0.4,0.2,0.9,0.2,1.2L93.7,16c0-0.2,0.1-0.5,0.3-0.7c0.1-0.2,0.3-0.5,0.4-0.5c0.2-0.2,0.6-0.4,0.8-0.4
					c0.3-0.1,0.6-0.1,0.7-0.1c0.2,0,0.3,0,0.4,0c0.1,0,0.2,0,0.3,0c0.3,0.1,0.6,0.1,0.8,0.2c0.5,0.2,0.9,0.3,1.3,0.5
					c0.8,0.3,1.6,0.7,2.4,1.1l2.3,1.1l1.2,0.6l1.1,0.6c1.5,0.9,3,1.8,4.5,2.8c1.4,1,2.8,2.1,4.1,3.3c0.7,0.6,1.3,1.2,1.9,1.9
					c0.6,0.7,1.2,1.3,1.7,2c0.5,0.6,1.1,1.5,1.5,2.2c0.4,0.8,0.9,1.5,1.2,2.3c1.5,3.2,2.5,6.4,4.2,9.3l-0.3,0.2
					c-1.1-1.4-2-2.8-2.8-4.4c-0.8-1.5-1.6-3-2.5-4.4c-0.4-0.7-0.9-1.4-1.4-2.1c-0.5-0.7-0.9-1.2-1.6-1.9c-0.5-0.6-1.2-1.2-1.8-1.7
					c-0.6-0.5-1.2-1.1-1.9-1.6c-1.3-1-2.7-2-4.1-2.8c-1.4-0.9-2.9-1.6-4.3-2.4l-1.1-0.5l-1.1-0.5l-2.3-1c-0.8-0.3-1.5-0.6-2.3-0.9
					c-0.4-0.1-0.8-0.3-1.1-0.4C96,18,95.8,18,95.7,18c0,0,0,0,0,0c0,0,0,0,0,0c0,0,0.2,0,0.3,0c0.1,0,0.5-0.2,0.7-0.3
					c0.1-0.1,0.3-0.3,0.4-0.5c0.1-0.2,0.2-0.4,0.2-0.6L93.7,16c0,0.2,0,0.4,0.1,0.7c0.1,0.2,0.2,0.4,0.3,0.5
					c0.2,0.2,0.2,0.1,0.2,0.2c0,0-0.1,0-0.1,0l-0.5,0l-2.2,0.1c-1.5,0.1-2.9,0.2-4.2,0.4c-1.3,0.2-2.5,0.5-3.6,1.1
					c-1.1,0.5-2,1.4-2.8,2.2c-0.9,1-1.6,2.1-2.4,3.3c-0.7,1.2-1.3,2.4-1.9,3.7c-0.6,1.3-1.1,2.6-1.6,4c-0.5,1.4-1,2.7-1.4,4.1
					c-1.8,5.4-2.9,11.1-3.4,16.9c-0.1,1.4-0.2,2.9-0.3,4.3c0,1.5-0.1,2.9,0,4.4c0,1.4,0.2,3-0.3,4.9l-0.1,0.4l-0.1,0.3
					c-0.1,0.3-0.3,0.5-0.4,0.8c-0.4,0.5-0.8,0.8-1.2,1.1c-0.9,0.6-1.7,0.8-2.5,1l-1.4,0.4l-0.4-1.3c-0.8-2.8-1.2-5.7-1.1-8.6
					c0.1-1.4,0.2-2.8,0.4-4.2l0.4-4.1c0.6-5.5,1.3-11,2.4-16.4c0.6-2.7,1.2-5.4,2-8.1c0.8-2.7,1.8-5.3,2.9-7.8c1.1-2.6,2.4-5,4-7.4
					c0.8-1.2,1.6-2.3,2.5-3.4c0.4-0.6,0.9-1.1,1.4-1.6c0.5-0.5,1-1,1.5-1.5c0.6-0.5,1.2-1,1.8-1.5c0.7-0.4,1.4-0.8,2.1-1.1
					c0.7-0.2,1.5-0.6,2.2-0.7l1.1-0.2c0.4-0.1,0.8-0.1,1.1-0.1c3.1-0.3,6,0.3,8.8,1.2c2.8,0.9,5.3,2.2,7.8,3.7
					c1.2,0.8,2.4,1.5,3.5,2.4c1.1,0.9,2.3,1.8,3.3,2.7c4.3,3.9,7.5,8.7,9.7,13.9c1.1,2.6,2,5.2,2.7,7.9c0.7,2.7,1.1,5.5,1.4,8.2
					L124.8,42.9z"/>
			</g>
			<path id="XMLID_426_" class="st19" d="M88.5,65.3c-0.2,0-0.3,0-0.5,0"/>
			<path id="XMLID_423_" d="M54.7,40.4c2.5-6.2,6.7-11.7,12.1-15.7c-4.2,10.1-6.5,20.9-6.8,31.8c-0.1,3.4,0.1,7.1,2.1,9.8
				c-3.5-3.7-6.3-8.1-8.3-12.8c-0.5,0.4-0.9,0.9-1.4,1.3c-0.7-5.2,0.3-10.5,2.8-15.1"/>
			<path id="XMLID_420_" d="M83.2,95.6c-1.2,1.1-3.9,0.6-4.6-0.9c0,0.7,0.5,1.4,1.1,1.6c0.7,0.2,1.5-0.1,1.9-0.7
				c-1.2,0.4-2.3,0.4-2.4-0.9c3.6-1.2,7.3-2.3,11.1-3.1c3.8-0.8,7.6-2,11.1-3.6c-0.9,0.4-1.9,0.9-2.8,1.3"/>
			<path id="XMLID_419_" class="st8" d="M69.6,62.2c0.1-13.2,1-27.3,9-37.8c1.4-1.8,3-3.5,5-4.5c1.5-0.8,3.2-1.1,4.9-1.3
				c7.6-0.8,15.5,1.4,21.5,6.2c-2.2-0.1-4.4-0.2-6.5-0.3c-4.5-0.2-9.3-0.3-13.4,1.7c-4.2,2.1-6.9,6.2-9.3,10.2
				c-4.6,7.8-8.4,16.1-11.3,24.7"/>
			<path id="XMLID_416_" class="st21" d="M123.4,41.3c-3.1-12.3-13.1-25.2-25.7-29.2c-5.6-1.7-11.5-2.4-16.4,1.3
				C76.6,17,73,22.1,70.6,27.5c-3.1,7-4.3,14.6-5.3,22.2c-0.4,3.2-0.8,6.6-0.5,9.8c0.1,1.5,0.4,3.1,1,4.5c0.2,0.7,1.7,3.1,1.2,3.8
				c0.9-1.4,0.8-3.1,0.8-4.7c0-1.6,0.4-3.1,0.2-4.7c-0.4-3.8,0.2-7.5,0.7-11.2c0.6-4.1,1.2-7.9,2.4-12c0.5-1.7,1.3-3.2,1.8-4.9
				c1.3-4.2,3.2-8.6,6.5-11.6c2.1-1.9,4.8-3,7.6-3.4C91,15,94.4,15,98.2,16.1c0.1,0.2-0.5,0.3-0.4,0.5c0.1,0.1,1.7,0.2,1.9,0.3
				c0.8,0.3,1.6,0.9,2.4,1.4c1,0.6,2.1,0.8,3.1,1.3c1.2,0.7,2.4,1.4,3.6,2.1c1.3,0.7,2.3,2.2,3.6,2.9c1.2,0.7,2.3,1.4,3.3,2.5
				c0.6,0.7,1.5,1.1,2,2"/>
			<path id="XMLID_415_" class="st8" d="M122.4,52.5c0.1-0.9,0.1-1.8,0.2-2.7c0-0.2,0.1-0.5,0.2-0.6c0.3-0.2,0.7,0.1,1-0.1
				c-0.9-3.2-1.9-6.4-3-9.5c0.9,0.2,1.5,1.2,1.9,2c1.1,2.3,2.1,4.7,2.8,7.2c0,0.1,0.1,0.3,0,0.4c0,0.1-0.1,0.1-0.1,0.2
				c-1,1.1-1.9,2.2-2.9,3.2"/>
		</g>
		<path id="XMLID_413_" class="st4" d="M88.6,15.8c-21,0-38,17.7-38,39.5c0,11.6,5.8,25.9,15.3,33.1c4.5,3.4,10.7,3.8,16.3,3.3
			c11.3-1.1,22.3-5.5,31.2-12.6c0.3-0.2,1.1-1.2,1.4-1.4c0.8-0.8,1.6-1.6,2.4-2.4c4.1-4.4,9-10.5,9.5-16.8
			c0.6-6.8-1.2-14.5-4.1-20.6C116.5,24.7,103.3,15.8,88.6,15.8z"/>
		<path id="XMLID_17_" class="st3" d="M62.5,67.5c-4.4-1.6-5.8-7.2-9.6-9.9C52,60,52,62.7,53.1,65.1c0.7,1.5,1.1,2.1,2.1,3.4"/>
		<path id="XMLID_15_" class="st0" d="M60,67.7c-3.4-1.3-4.4-5.6-7.3-7.7c-0.7,1.9-0.7,4,0.1,5.8c0.5,1.2,0.8,1.7,1.6,2.7"/>
		<path id="XMLID_365_" class="st5" d="M54.7,40.4c2.5-6.2,6.7-11.7,12.1-15.7c-4.2,10.1-6.5,20.9-6.8,31.8
			c-0.1,3.4,0.1,7.1,2.1,9.8c-3.5-3.7-6.3-8.1-8.3-12.8c-0.5,0.4-0.9,0.9-1.4,1.3c-0.7-5.2,0.3-10.5,2.8-15.1"/>
		<path id="XMLID_410_" class="st5" d="M77.7,67.9c2-2,3.9-3.9,5.9-5.9c6.1-6.1,12.3-12.4,16.7-19.8c-0.8-0.1-1.5-0.2-2.3-0.3
			c4.6-3.4,10.6-4.7,16.2-3.7c-0.8-4.4-1.6-8.9-2.4-13.3c3.3,2.2,6,5.3,7.7,8.9c-0.7-0.1-1.3-0.2-2-0.3c0.1,6.4,0.2,12.8,0.4,19.1
			c1.5-0.9,3.1-1.8,4.6-2.6c-0.7,3.8-3.4,7-6.5,9.2s-6.9,3.5-10.5,4.8c-9.6,3.3-19.5,6.1-29.7,6.8c1.2-1.1,2.2-2.4,2.9-3.9"/>
		<path id="XMLID_405_" class="st6" d="M73.1,19.1c-5,8.4-6.7,18.3-8,27.9c-1,7.7-1.8,15.6,0,23.2c1.8,7.6,6.5,14.9,13.8,18.2"/>
		<g id="XMLID_401_">
			<path id="XMLID_292_" class="st22" d="M51.8,64.7c1.8,2.4,5.1,3,8.1,3.3c12.6,1.1,25.1-1.3,37-5c6.1-1.9,12-4.1,17.9-6.5
				c4.4-1.7,7.2-2,10.6-5.4c0.8,0.7,1.3,1.7,1.6,2.7c2.6,7-1.2,14.7-5.9,20.5c-3.7,4.4-8,8.3-12.8,11.4c-7.1,4.6-15.1,7.7-23.1,10.6
				c-6.3,2.3-7.3,0.4-11.5-3.2c-4.1-3.5-9.4-5.2-13.3-9.2c-4-4.2-6.6-9.5-9.1-14.7c-0.6-1.3-0.2-2.3-0.2-3.8"/>
			<path id="XMLID_290_" d="M51.8,64.7c1,1.3,2.5,2,4.1,2.4c1.5,0.4,3.1,0.5,4.7,0.5c1.6,0.1,3.2,0.1,4.8,0c1.6,0,3.2-0.1,4.8-0.3
				c1.6-0.1,3.2-0.3,4.8-0.6c1.6-0.2,3.2-0.4,4.8-0.7c3.2-0.5,6.3-1.2,9.4-2c6.2-1.6,12.3-3.6,18.4-5.9l4.5-1.7
				c1.5-0.6,3-1.2,4.6-1.8c1.5-0.5,3.1-1,4.4-1.7c1.4-0.7,2.6-1.6,3.6-2.6l0.7-0.7l0.7,0.7c1.1,1.1,1.7,2.4,2.1,3.6
				c0.1,0.3,0.2,0.6,0.3,0.9l0.2,1c0.1,0.7,0.2,1.3,0.2,2c0.1,2.6-0.4,5.2-1.4,7.6c-0.9,2.4-2.2,4.6-3.6,6.7c-1.5,2.1-3.1,4-4.8,5.8
				c-1.7,1.8-3.6,3.5-5.6,5.1c-2,1.6-4,3-6.2,4.3c-4.3,2.6-8.9,4.7-13.5,6.6c-2.3,0.9-4.6,1.8-6.9,2.7c-0.6,0.2-1.1,0.4-1.8,0.6
				c-0.6,0.2-1.2,0.4-1.9,0.6c-1.3,0.3-2.7,0.5-4.2,0.1c-1.5-0.4-2.6-1.3-3.6-2.1c-1-0.8-1.9-1.7-2.8-2.4c-1.8-1.5-3.9-2.7-6.1-3.9
				c-1.1-0.6-2.2-1.3-3.2-2c-1.1-0.7-2-1.6-3-2.5c-1.8-1.9-3.3-3.9-4.5-6.1c-1.3-2.2-2.4-4.4-3.4-6.7c-0.5-1.1-1-2.3-1.5-3.4
				c-0.5-1.3-0.1-2.5,0-3.7c0.1,1.2-0.3,2.5,0.3,3.6l1.8,3.3c1.2,2.2,2.4,4.3,3.8,6.3c1.4,2,3,3.9,4.7,5.4c0.9,0.8,1.9,1.4,2.9,2.1
				c1,0.7,2,1.3,3.1,1.9c2.1,1.2,4.3,2.5,6.3,4.1c1,0.8,1.9,1.7,2.8,2.4c0.9,0.8,1.8,1.4,2.8,1.7c1,0.2,2.1,0.1,3.2-0.1
				c0.5-0.1,1.1-0.3,1.7-0.5c0.5-0.2,1.1-0.4,1.7-0.6c2.3-0.9,4.6-1.7,6.9-2.7c2.3-0.9,4.5-1.9,6.7-3c2.2-1.1,4.4-2.2,6.4-3.5
				c2.1-1.3,4.1-2.7,6-4.2c1.9-1.5,3.7-3.2,5.4-4.9c1.7-1.8,3.3-3.6,4.6-5.6c1.4-2,2.6-4.1,3.4-6.3c0.9-2.2,1.3-4.5,1.2-6.9
				c0-0.6-0.1-1.2-0.2-1.7l-0.2-0.8c-0.1-0.3-0.2-0.6-0.3-0.9c-0.3-1.1-0.8-2.1-1.5-2.8l1.4,0c-1.2,1.2-2.6,2.3-4.2,3
				c-1.6,0.8-3.1,1.2-4.6,1.8c-1.5,0.5-3,1.1-4.5,1.7l-4.5,1.7c-6.1,2.3-12.3,4.4-18.6,6c-3.2,0.8-6.4,1.5-9.6,2
				c-0.8,0.1-1.6,0.3-2.4,0.4c-0.8,0.1-1.6,0.2-2.4,0.3c-1.6,0.1-3.3,0.2-4.9,0.2c-1.6,0-3.3,0-4.9-0.1c-1.6-0.1-3.3-0.2-4.9-0.4
				c-1.6-0.2-3.3-0.4-4.8-1C54.2,66.9,52.7,66,51.8,64.7z"/>
		</g>
		<path id="XMLID_400_" class="st7" d="M113.3,76.8c-0.7,1-1.8,1.7-3,1.8c1.4-3.4,1.8-7.1,2.3-10.7c0.4-2.7,1-5.7,3.3-7.3
			c0.8,1.6,0.6,3.5,0.3,5.3c-0.2,1.5-0.4,3.1-0.7,4.6C115.1,72.8,114.8,75.1,113.3,76.8"/>
		<path id="XMLID_397_" class="st5" d="M78,72.8c0-0.9,0.2-1.9,0.9-2.4c0.6-0.5,1.5-0.6,2.3-0.6c0.4,0,0.7,0,1,0.2
			c0.5,0.3,0.7,0.8,1,1.4c1.6,4.2,0.1,8.2-0.9,12.4c-0.5,2.2-2.1,4.3-3.2,6.3c-0.2,0.5-0.8,1-1.2,0.6c-0.3-0.2-0.2-0.6-0.1-1
			c0.8-2.8,1.6-5.6,1.8-8.5c0.1-1.5,0.1-3.1-0.3-4.6C79,75.3,78,74.2,78,72.8z"/>
		<path id="XMLID_394_" class="st5" d="M104.9,67.2c-0.1-1.6,0.8-3.1,2.1-4.2s2.9-1.8,4.6-2.4c0.4-0.1,0.8-0.2,1,0.1
			c0.1,0.2,0.1,0.4,0,0.6c-0.4,1.5-1.3,2.9-1.8,4.4c-1.4,3.7-1,7.8-2.1,11.6c-0.4,1.2-0.9,2.5-1.9,3.4c-1,1-2.4,1.6-3.9,1.5
			c2.4-4.9,3.3-10.4,2.6-15.6"/>
		<path id="XMLID_16_" class="st3" d="M79.6,67.3C89.1,62,95.9,51,105.2,45.1c1-0.7,2.1-1.3,3.2-1.3c3.7-0.2,6.8,5.2,5.1,9.5
			c0.1,0.7,0.4,0.5,0,1c-0.2,2.2-1.3,3.5-2.7,4.8"/>
		<path id="XMLID_14_" class="st0" d="M79.6,67.3c9.5-4.1,16.3-12.8,25.6-17.5c1-0.5,2.1-1,3.2-1c3.7-0.2,6.8,4.1,5.1,7.5
			c0.1,0.5,0.4,0.4,0,0.8c-0.2,1.7-1.3,2.8-2.7,3.8"/>
		<path id="XMLID_391_" class="st5" d="M90.8,73c0.1-0.9-1-1.4-1.3-2.3c-0.3-1.1,0.9-2,1.9-2.5c1.4-0.7,2.8-1.3,4.3-1.9
			c0.5-0.2,1-0.4,1.4-0.3c0.8,0.2,1.2,1,1.5,1.8c1.3,3.9,0.9,8.3-0.9,12c-1.8,3.7-5,6.7-8.7,8.4c1.6-1.6,2.4-3.8,2.8-6
			c0.3-2.2,0.2-4.5,0.1-6.7c-0.1-1.3-0.3-2.8-1.3-3.6"/>
		<path id="XMLID_390_" class="st7" d="M90.1,86.5c-0.1,0.8-0.6,1.6-1.4,2c-0.1-4-0.4-8-0.9-11.9c-0.2-1.9-0.5-4,0.7-5.4
			c0.9-1.1,2.4-1.6,3.6-2.4c0.6,0.5,0.7,1.5,0.7,2.3c0,2.4,0,4.7-0.1,7.1c0,3.1-0.2,6.4-2.3,8.6"/>
		<path id="XMLID_387_" class="st5" d="M118.5,58.6c0.4-0.9,1-1.8,1.8-2.4c0.8-0.6,2-0.7,2.8,0c0.4,0.4,0.6,0.9,0.8,1.4
			c0.7,2.4,0.1,4.9-0.6,7.3c-0.5,1.6-1,3.2-1.6,4.7c-0.6,1.6-1.3,3.1-2.4,4.4c-1.5,1.7-3.8,2.7-5.9,3.5c2.9-6.1,4.9-12.7,5.8-19.4"
			/>
		<path id="XMLID_386_" class="st7" d="M104.1,80c-0.3,1.4-1.8,2.4-3.1,2.1c1.1-3.8,0.6-7.9,0.4-11.9c0-0.7-0.1-1.4,0.2-2
			c0.3-0.8,1-1.4,1.6-1.9c0.5-0.4,1.1-0.9,1.8-0.7c0.8,0.2,1.1,1.2,1.2,2.1c0.3,2.6,0.6,5.2-0.2,7.7c-0.5,1.5-1.3,3-1.5,4.6"/>
		<path id="XMLID_383_" class="st7" d="M53,69c0.3,0.7,0.7,1.3,1,2c-0.5-1.6-1-1.5-1.5-3c2,1.3,4.2,2.1,6.5,2.4c1,0.2,2.1,0.2,3,0.7
			c1.1,0.6,1.7,1.8,2.3,3c0.9,1.8,1.7,3.6,2.4,5.4c0.4,1.1,0.8,2.2,1.3,3.2c1.6,3.6,4.1,6.8,7.1,9.4c-0.4,0.5-1.1,0.1-1.6-0.3
			c-3.3-2.5-6.5-5-9.8-7.5c-1.9-1.4-3.7-2.8-5.3-4.6c-2.3-2.5-3.9-5.5-4.6-8.8"/>
		<path id="XMLID_382_" class="st6" d="M74.1,93.4c3.7,0,7.3-0.9,10.8-1.8c5.9-1.5,11.7-3.3,17.3-5.5c5-1.9,9.8-3.8,14.1-7.1"/>
		<path id="XMLID_381_" class="st7" d="M87.7,68c9.2-3.5,18.5-7,27.6-10.6c3.1-1.2,6.2-2.5,9.3-3.8c0.6,1.9,0.8,3.9,0.6,5.9
			c0-1.5-1.7-2.5-3.2-2.2s-2.7,1.2-3.9,2.1c-6.9,5.1-15.4,7.4-23.8,9.4c-3.2,0.8-6.7,1.7-8.8,4.3c-0.4-1.3-0.3-2.7,0.4-3.8
			c0.7-1.1,2.1-1.8,3.4-1.7"/>
		<path id="XMLID_380_" class="st7" d="M78.2,88.8c0.1,0.7,0.1,1.4,0,2c-2.7-4.1-1.4-8.3-1.8-12.9c-0.2-1.9-0.7-4.7,0.9-6.3
			c1.9-2,3,0.4,3.1,2.2c0.1,1.5,0.1,3,0.1,4.4c0,1.4,0,2.7-0.3,4.1c-0.5,2.3-1.7,4.5-1.6,6.9c-0.1-0.1-0.2-0.3-0.2-0.4"/>
		<path id="XMLID_379_" class="st0" d="M66.9,73.1c-0.1,0-0.2,0-0.3,0c2,0,3-0.3,5.1-0.4c0.1,0,0.2,0,0.3,0.1C72,72.9,72,73,72,73.2
			c0.7,5.5,1.4,11,2,16.5c-2.5-0.9-3.8-3.7-4.6-6.3c-1.1-3.2-2.1-6.4-3.1-9.6c-0.4-0.3-0.3-0.6,0.2-0.9"/>
		<path id="XMLID_378_" class="st23" d="M78.5,72c0.8-1.7,2.7-1.9,3.4-0.3c1.7,3.8-2.8,18.6-3.9,17.9c-0.4-0.2,0-2.1,0-11.1
			C78,74.9,77.9,73.2,78.5,72z"/>
		<path id="XMLID_377_" class="st0" d="M118.1,73.2c1.9-2.8,3.2-6.4,3.8-8.4c0.3-1.2,0.8-6.7-0.8-7.2c-0.3-0.1-0.7,0-1,0.1
			c-1.1,0.3-2.2,0.6-3,1.3c-2,1.6-1.8,6.4-2.3,8.7c-0.7,3.2-1.8,6.3-2.9,9.4C114.3,77.6,116.5,75.7,118.1,73.2z"/>
		<path id="XMLID_376_" class="st0" d="M102.7,81.1c2.1-4.4-0.4-9.5,1-14c0.2-0.7,0.8-1.3,1.4-1.8c1.6-1.5,3.4-2.7,5.3-3.5
			c-1.8,0.8-3.7,14.9-4.3,17C105.6,80.2,104.1,81.7,102.7,81.1z"/>
		<path id="XMLID_375_" class="st0" d="M90.2,71c1.6-1.4,3.4-2.5,5.4-3.2c0.3-0.1,0.5-0.2,0.8-0.1c0.5,0.1,0.8,0.8,0.8,1.3
			c0.3,1.8,0.1,3.6-0.1,5.4c-0.2,1.7-0.5,3.4-1.1,5c-0.7,1.9-1.9,3.5-3.2,5c-0.4,0.5-3.2,2.6-3.2,3.1c0.5-4.4,0.9-8.2,0.3-12.7
			c-0.2-1.6-0.3-3.6,1.1-4.4"/>
		<path id="XMLID_374_" class="st0" d="M55.7,71.8c1.1,0.7,2.3,1.4,3.7,1.5c0.5,0,0.9,0,1.3,0.2c0.5,0.3,0.8,0.8,1,1.3
			c1.4,3.5,2.7,7.2,4.9,10.2c-2.9-0.9-5-3.5-6.8-6c-1.3-1.8-3.6-4.4-3.8-6.8"/>
		<path id="XMLID_373_" class="st6" d="M113.5,56.7c2.9-10.8,1.9-22.6-2.7-32.7"/>
		<path id="XMLID_369_" class="st4" d="M125,42.8c-1.8-10.7-6.2-21.2-14.2-28.5s-22-14.1-30-6.9c-6.9,6.2-11.2,15-13.6,24
			c-2.4,9-3,18.4-3.6,27.7c0,0.2,0,0.5-0.1,1c-0.1,3.7,0.6,6.8,1.3,8.9c1.1-0.3,2.6-0.8,3.1-2.2c0.5-1.3,0.4-2.7,0.4-4.1
			c-0.4-9.3,0.6-18.7,3.5-27.5c1.6-4.9,3.3-9.9,6.4-14.1c4.4-5.9,9.1-5.5,16-5.7c0.6,0,1.5,0.2,1.4,0.8c0.1-0.8,7.7,2.8,8.2,3.1
			c4.8,2.4,9.4,5.4,13,9.5c3.8,4.2,4.8,9.2,7.8,13.6"/>
		<path id="XMLID_368_" class="st6" d="M88.5,65.3c-0.2,0-0.3,0-0.5,0"/>
		<path id="XMLID_346_" class="st5" d="M83.2,95.6c-1.2,1.1-3.9,0.6-4.6-0.9c0,0.7,0.5,1.4,1.1,1.6c0.7,0.2,1.5-0.1,1.9-0.7
			c-1.2,0.4-2.3,0.4-2.4-0.9c3.6-1.2,7.3-2.3,11.1-3.1c3.8-0.8,7.6-2,11.1-3.6c-0.9,0.4-1.9,0.9-2.8,1.3"/>
		<path id="XMLID_345_" class="st7" d="M69.6,62.2c0.1-13.2,1-27.3,9-37.8c1.4-1.8,3-3.5,5-4.5c1.5-0.8,3.2-1.1,4.9-1.3
			c7.6-0.8,15.5,1.4,21.5,6.2c-2.2-0.1-4.4-0.2-6.5-0.3c-4.5-0.2-9.3-0.3-13.4,1.7c-4.2,2.1-6.9,6.2-9.3,10.2
			c-4.6,7.8-8.4,16.1-11.3,24.7"/>
		<path id="XMLID_340_" class="st5" d="M123.4,41.3c-3.1-12.3-13.1-25.2-25.7-29.2c-5.6-1.7-11.5-2.4-16.4,1.3
			C76.6,17,73,22.1,70.6,27.5c-3.1,7-4.3,14.6-5.3,22.2c-0.4,3.2-0.8,6.6-0.5,9.8c0.1,1.5,0.4,3.1,1,4.5c0.2,0.7,1.7,3.1,1.2,3.8
			c0.9-1.4,0.8-3.1,0.8-4.7c0-1.6,0.4-3.1,0.2-4.7c-0.4-3.8,0.2-7.5,0.7-11.2c0.6-4.1,1.2-7.9,2.4-12c0.5-1.7,1.3-3.2,1.8-4.9
			c1.3-4.2,3.2-8.6,6.5-11.6c2.1-1.9,4.8-3,7.6-3.4C91,15,94.4,15,98.2,16.1c0.1,0.2-0.5,0.3-0.4,0.5c0.1,0.1,1.7,0.2,1.9,0.3
			c0.8,0.3,1.6,0.9,2.4,1.4c1,0.6,2.1,0.8,3.1,1.3c1.2,0.7,2.4,1.4,3.6,2.1c1.3,0.7,2.3,2.2,3.6,2.9c1.2,0.7,2.3,1.4,3.3,2.5
			c0.6,0.7,1.5,1.1,2,2"/>
		<path id="XMLID_339_" class="st5" d="M122.4,52.5c0.1-0.9,0.1-1.8,0.2-2.7c0-0.2,0.1-0.5,0.2-0.6c0.3-0.2,0.7,0.1,1-0.1
			c-0.9-3.2-1.9-6.4-3-9.5c0.9,0.2,1.5,1.2,1.9,2c1.1,2.3,2.1,4.7,2.8,7.2c0,0.1,0.1,0.3,0,0.4c0,0.1-0.1,0.1-0.1,0.2
			c-1,1.1-1.9,2.2-2.9,3.2"/>
	</g>
</g>
<g id="sword">
	<g id="XMLID_336_">
		<linearGradient id="XMLID_121_" gradientUnits="userSpaceOnUse" x1="43" y1="125.3438" x2="112.9614" y2="125.3438">
			<stop  offset="0" style="stop-color:#D2D0CF"/>
			<stop  offset="1" style="stop-color:#BCBBBB"/>
		</linearGradient>
		<polygon id="XMLID_299_" class="st24" points="98.4,150.3 103.6,153.4 113,141.8 56.1,97.3 43,97.9 44,108 		"/>
		<polygon id="XMLID_301_" class="st18" points="97.3,148.3 95.2,129.1 113.7,143.8 104.4,152.9 		"/>
		<polygon id="XMLID_312_" class="st25" points="52,111.4 58.3,115.5 61,102.4 56.1,98.9 		"/>
		<polygon id="XMLID_313_" class="st25" points="45.2,107.3 44,98.9 48.3,98.9 46.8,100.9 46.8,107.3 96.6,144.3 97.3,148.3 		"/>
		<polyline id="XMLID_300_" class="st26" points="111.4,144.2 55.6,100.1 46,100.6 46,106.6 105.2,151.4 		"/>
		<polygon id="XMLID_298_" class="st27" points="123.2,164.6 113.5,158 108.1,154.5 115.2,143.9 132.6,162.2 127,167.9 124.2,167.1 
					"/>
		<polygon id="XMLID_139_" class="st27" points="102.1,155.9 106,156.9 116.3,143 115.1,139.1 113.7,138.3 101.1,155.1 		"/>
		<path id="XMLID_302_" d="M54.8,98"/>
		<polyline id="XMLID_317_" class="st28" points="122.4,164 108.1,154.5 111.4,150.3 115.6,153.4 120.3,157.3 129.2,165.7 
			127,167.9 124.2,167.1 123.2,164.6 124.3,161.9 126.6,155.9 		"/>
		<polyline id="XMLID_325_" class="st29" points="131.1,163.7 131.1,163 131.1,161.6 115.6,145.7 114.5,146.5 		"/>
		<line id="XMLID_321_" class="st6" x1="113.5" y1="158" x2="117.7" y2="146.5"/>
		<line id="XMLID_320_" class="st6" x1="118.8" y1="161.6" x2="122.4" y2="151.4"/>
		<line id="XMLID_322_" class="st6" x1="123.2" y1="164.6" x2="126.6" y2="155.9"/>
		<polygon id="XMLID_324_" class="st28" points="101.1,155.1 103.5,156.3 106,156.9 111.4,150.3 106.2,148.3 		"/>
	</g>
</g>
<g id="shoulders">
	<g id="XMLID_3_">
		<path id="XMLID_18_" class="st3" d="M144.1,93.1c1.3,3.4,0.1,6.3-2.4,11.1c-2.8,5.5-5.6,10.9-8.4,16.4c-0.7,1.3-1.5,2.8-3,3.1
			c-4.7,1.2-7.7-2.1-9.5-6c-1-2.1-1.6-4.5-2.2-6.8c-0.6-2.3-2.5-3.9-2.9-5.8c-0.9-4.8-1.8-9.6-2.7-14.4c-0.1-0.5-0.2-1-0.1-1.5
			c0.1-0.5,0.4-0.9,0.7-1.2c0.7-0.8,1.4-1.7,2.1-2.5c3.8-4.7,6.6-8.7,12.6-5.8c4.8,2.2,9.8,5,13.2,9.2
			C142.8,90.4,143.7,91.8,144.1,93.1z"/>
		<path id="XMLID_141_" class="st3" d="M135,117.6c0,1.8-0.5,3.6-1.7,4.8c-5.4,5.7-9-6.7-10-10.1c-1.1-3.7-1.9-7.5-3-11.2
			c-0.2-0.7-0.5-3.2-1.3-3.6c-2.8-1.6-2.5,2.5-4.1,3.4c-0.3-1.5-0.7-3-1.3-4.5c0.3-0.4,0.8-0.6,1.2-0.4c1.1-0.9,0.7-1.8,1.8-2.7
			c0.5-0.4,1-0.9,1.6-1.1c1.3-0.5,2.7,0.2,3.7,1.1c2.3,2.1,3.3,5.3,4.1,8.3c1.3,4.8,2.6,9.7,2.9,14.6"/>
		<path id="XMLID_36_" class="st4" d="M126.4,112.4c-0.9-5.3-1.2-10.3-3-15.8c-0.5-1.4-1-2.9-2.3-3.6c-1.2-0.6-2.7-0.3-3.8,0.4
			c-1.1,0.7-2,1.8-2.8,2.9c0,0-1.3-5.4-1.2-6.4c0.3-2.3,1.5-4.4,2.8-6.3c3.1-4.2,8.1-5.7,13.2-4.5c5.2,1.2,10.3,5.3,13.1,9.9
			c2.9,4.8,1.5,9-0.7,13.6c-2.7,5.5-3.3,12-7.2,16.9c-4,5-6.4,1-7.4-3.5C126.9,114.9,126.6,113.7,126.4,112.4z"/>
		<path id="XMLID_142_" class="st5" d="M132.3,120.8c-0.5-0.1-1-0.2-1.4-0.2c3.2-3.2,4-8,4.7-12.5c-1.6-0.2-2.4-2-2.9-3.5
			c-0.9-2.9-1.7-5.8-2.4-8.8c-0.3-1.4-0.7-2.9-1.5-4.1c-1.4-2.1-3.6-1.9-5.7-1.5c-0.7,0.1-1.5,0.2-1.9-0.3c-0.4-0.5-0.3-1.3,0.2-1.8
			s1.1-0.7,1.8-0.8c1.5-0.4,3-0.8,4.4-0.3c1.9,0.7,2.5,2.4,3.2,4.2c0.6,1.6,1.5,3.1,1.6,4.9c0.3,3.2,0.6,6.4,2.5,9
			c1.4,2,5,0.4,4.3,3.3c-1,4-2.6,7.8-4.9,11.2"/>
		<path id="XMLID_39_" class="st6" d="M139.6,106.6c-1.3-0.2-2.5-0.4-3.7-0.7c-0.3-0.1-0.7-0.2-0.9-0.4c-0.3-0.3-0.4-0.7-0.5-1.1
			c-0.8-4.3-1.9-8.6-3.2-12.8c-0.7-2.2-1.9-4.8-4.2-5.1c-0.7-0.1-1.4,0-2,0.2c-3.9,0.9-7.6,2.4-11,4.5"/>
		<path id="XMLID_157_" class="st7" d="M134.7,102.8c-0.4,1.4,1.1,2.6,2.5,3c3,0.9,4.7-3.4,5.3-5.5c2.1-6.7-0.3-13.4-6.2-17.2
			c-3-1.9-6.6-3.6-10.1-3.8c-3.5-0.2-7.3,1.5-8.7,4.8c3.4-1.9,7.5-2.7,11.2-1.5c3.3,1.1,5.8,3.8,7.4,6.8c1.6,3.1,2.2,6.5,2.5,9.9
			c0.1,1.2,0.1,2.6-0.7,3.5s-2.7,0.9-2.9-0.3"/>
		<path id="XMLID_162_" class="st5" d="M122.9,86.4c1.6-0.4,3.8-0.9,5.3,0c0.4,0.2,0.6,0.8,0.9,1.2c3.5,3.7,4,8.9,5.3,13.7
			c0.1,0.3,0.2,0.6,0.4,0.9c0.3,0.5,1.5,1.1,1,1.9c0.4,0,0.1-0.6,0.5-0.6c0.4-3.2-0.3-6.4-1.6-9.3s-3.1-5.5-4.9-8.2
			c-0.3-0.4-0.6-0.9-1.1-1.1c-0.5-0.2-1.1-0.1-1.7,0c-1.8,0.3-3.8,0.9-4.5,2.5c2.2-1.1,4.9-1,7,0.3c0-1.1-0.5-1.3-1.5-1.2
			c-2.1,0.1-3.3,0.3-5.3,0.1"/>
		<path id="XMLID_163_" class="st7" d="M128.5,117.4c-0.4-0.9-0.4-1.9-0.5-2.9c-0.4-5.6-1.4-11.1-2.9-16.5
			c2.4,5.2,4.1,10.7,4.9,16.4c0.1,0.7,0.2,1.3,0.6,1.9c0.4,0.5,1.2,0.9,1.7,0.5c-0.8,0.5-0.2,2.5-1.7,2.6
			C129.8,119.4,128.8,118.1,128.5,117.4z"/>
	</g>
</g>
<g id="arm">
	<g id="XMLID_2_">
		<g id="XMLID_193_">
			<path id="XMLID_225_" d="M121.8,120.8c4-4.8,12.9-8.6,17.6-9.6c1,11-0.8,19-5.9,28.9c-1.3,2.5-4,5.4-7,4.4
				c-1.6-0.5-2.4-2-3.1-3.4c-2.1-4.5-5-12.6-3.3-17.5C120.4,122.7,121,121.7,121.8,120.8z"/>
			<path id="XMLID_222_" d="M121.8,120.8l0.9-0.9l0.9-0.9c0.6-0.6,1.3-1.1,2-1.6c0.7-0.5,1.4-1,2.1-1.4c0.7-0.4,1.5-0.9,2.2-1.3
				c0.7-0.4,1.5-0.8,2.3-1.2c0.8-0.4,1.5-0.7,2.3-1.1c1.6-0.7,3.2-1.3,4.9-1.7l0.5-0.1l0.1,0.5c0.2,1.4,0.3,2.7,0.4,4.1
				c0.1,1.4,0.1,2.7,0.1,4.1c0,1.4-0.1,2.8-0.3,4.1c-0.2,1.4-0.4,2.7-0.7,4.1c-0.3,1.4-0.7,2.7-1.1,4c-0.4,1.3-0.9,2.6-1.5,3.9
				c-0.6,1.3-1.1,2.5-1.8,3.7l-0.5,0.9l-0.3,0.5L134,141c-0.4,0.7-0.8,1.2-1.3,1.8c-1,1.1-2.2,2.1-3.7,2.5c-1.6,0.4-3.3-0.1-4.4-1.2
				c-1.1-1.1-1.6-2.5-2.1-3.7c-0.5-1.3-1-2.6-1.4-3.9c-0.8-2.6-1.4-5.3-1.6-8c-0.1-1.4,0-2.7,0.3-4.1
				C120.2,123,120.9,121.8,121.8,120.8z M121.8,120.8c-0.9,1-1.6,2.2-1.9,3.6c-0.3,1.3-0.3,2.7-0.2,4c0.1,1.3,0.4,2.7,0.7,4
				c0.4,1.3,0.8,2.6,1.3,3.8c0.5,1.3,1,2.5,1.6,3.7c0.6,1.2,1.2,2.4,2.1,3.2c0.9,0.8,2.1,1,3.1,0.7c1.1-0.3,2-1.2,2.8-2.2
				c0.4-0.5,0.7-1,1-1.5l0.2-0.5l0.2-0.4l0.4-0.9c0.6-1.2,1.1-2.4,1.7-3.7c0.5-1.2,1-2.5,1.4-3.7c0.4-1.3,0.8-2.5,1.1-3.8
				c0.3-1.3,0.6-2.6,0.8-3.9c0.2-1.3,0.4-2.6,0.5-4c0.1-1.3,0.2-2.7,0.2-4c0-1.3,0-2.7-0.1-4l0.6,0.4c-1.6,0.3-3.3,0.8-4.8,1.3
				c-1.6,0.6-3.2,1.2-4.7,1.9c-0.8,0.4-1.5,0.8-2.2,1.2c-0.7,0.4-1.5,0.9-2.1,1.4c-0.7,0.5-1.4,1-2,1.6l-0.9,0.9L121.8,120.8z"/>
		</g>
		<path id="XMLID_20_" class="st4" d="M121.8,120.8c4-4.8,12.9-8.6,17.6-9.6c1,11-0.8,19-5.9,28.9c-1.3,2.5-4,5.4-7,4.4
			c-1.6-0.5-2.4-2-3.1-3.4c-2.1-4.5-5-12.6-3.3-17.5C120.4,122.7,121,121.7,121.8,120.8z"/>
		<path id="XMLID_167_" class="st6" d="M120.6,131.7c1.9-4.4,5.7-7.8,9.7-10.5c2.5-1.7,5.4-3.2,8.5-2.9"/>
		<path id="XMLID_169_" class="st6" d="M128,144.3c5.5-7,7-16.4,8-25.3c-0.2,0.3-0.4,0.5-0.6,0.8"/>
		<path id="XMLID_180_" class="st7" d="M120.3,126.5c3.3-4.6,7.7-8.3,12.8-10.7c1.7-0.8,3.6-1.5,5.5-1.4c0-0.6,0-1.1,0-1.7
			c0,0.1-5.3,1.7-5.8,1.9c-2.1,0.9-4.1,1.9-6,3.2C123.1,120.2,121.1,122.1,120.3,126.5z"/>
		<path id="XMLID_181_" class="st5" d="M121.2,132.7c2.1-4,5.1-7.6,8.8-10.2c-1.8,2.7-3.3,5.6-4.1,8.7c-0.8,3.1-0.8,6.5,0.5,9.4
			c2.1-1.7,3.8-3.8,5-6.2c0.1,3.4-1.9,6.5-3.7,9.4c-0.2,0.3-0.5,0.6-0.8,0.6c-0.3,0-0.5-0.3-0.7-0.5c-2.3-2.9-3.8-6.5-4.2-10.2"/>
		<path id="XMLID_183_" class="st7" d="M129.9,142.6c4.1-5.1,6.7-12.7,8.2-19c0.5,1,0.1,2.1-0.2,3.2c-1.8,5.9-3.7,11.8-7.4,16.7
			c-0.2,0.3-0.5,0.6-0.9,0.7c-0.3,0-0.5-0.2-0.6-0.4C129.2,143.4,129.6,143,129.9,142.6z"/>
	</g>
</g>
<g id="hand_1_">
	<g id="shadow">
	</g>
	<g id="hand">
		<g id="XMLID_1_">
			<g id="XMLID_244_">
				<defs>
					<path id="XMLID_277_" d="M125.9,143.1c15.2,2.2-2.4,31.4-11.7,20.4c-2.1-2.5-2.2-6.3-0.4-8.9c1.8-2.7,1.6-5.9,3.8-8.3
						C119.6,144.1,122.8,142.6,125.9,143.1z"/>
				</defs>
				<use xlink:href="#XMLID_277_"  style="overflow:visible;"/>
				<clipPath id="XMLID_122_">
					<use xlink:href="#XMLID_277_"  style="overflow:visible;"/>
				</clipPath>
				<use xlink:href="#XMLID_277_"  style="overflow:visible;fill:none;stroke:#000000;stroke-width:2;stroke-miterlimit:10;"/>
			</g>
			<g id="XMLID_243_">
				<path id="XMLID_275_" d="M131.4,154.8c-1.6,4.2-4,6.8-7.6,9.5c-0.2,0.1-0.4,0.3-0.6,0.3c-0.3,0.1-0.7-0.1-1-0.4
					c-2.9-2-5.5-4.5-7.7-7.2c-0.1-0.1-0.2-0.3-0.2-0.4c0-0.2,0.1-0.4,0.2-0.5c1.1-1.5,1.3-4.4,1.3-6.2c0-1.1,0.3-1.4,1.1-2.2
					c0.7-0.8,1.7-1.4,2.8-1.8c0.4-0.2,0.8-0.3,1.3-0.2c0.4,0.1,0.7,0.3,1,0.6c3.4,2.6,6.6,5.6,9.3,8.9"/>
				<path id="XMLID_274_" d="M131.5,154.8c0,0,0,0.2-0.1,0.6c-0.1,0.4-0.3,1-0.5,1.7c-0.3,0.7-0.6,1.5-1.2,2.4
					c-0.6,0.9-1.3,1.9-2.2,2.8c-0.9,0.9-2,1.8-3.2,2.7c-0.2,0.1-0.4,0.3-0.8,0.4l-0.1,0c-0.1,0-0.1,0-0.1,0c-0.1,0-0.2,0-0.3,0
					c-0.2,0-0.4-0.1-0.5-0.1c-0.6-0.3-0.8-0.5-1.1-0.8c-0.6-0.5-1.2-1-1.7-1.6c-1.1-1.1-2.3-2.3-3.4-3.5c-0.6-0.6-1.1-1.2-1.7-1.8
					c-0.1-0.2-0.3-0.3-0.4-0.5c-0.1-0.1-0.2-0.3-0.2-0.5c0-0.2,0.1-0.4,0.1-0.5l0.3-0.6c0.1-0.2,0.1-0.3,0.2-0.5
					c0.4-1.5,0.4-3.1,0.4-4.7l0-0.6c0-0.3,0-0.5,0.1-0.8c0.1-0.6,0.5-1.1,0.8-1.4c0.3-0.3,0.5-0.6,0.9-1c0.3-0.3,0.7-0.6,1.1-0.8
					c0.4-0.2,0.8-0.4,1.2-0.6c0.4-0.2,0.8-0.3,1.4-0.4c0.3,0,0.6,0,0.9,0.1c0.4,0.1,0.6,0.2,0.8,0.4c0.4,0.3,0.7,0.5,1,0.7
					c1.2,0.9,2.2,1.9,3.1,2.7c1.8,1.8,3.1,3.5,4,4.7c0.9,1.2,1.3,1.9,1.3,1.9l-0.2,0.1c0,0-0.6-0.6-1.7-1.5c-1.1-1-2.6-2.3-4.6-3.9
					c-1-0.8-2-1.6-3.2-2.4c-0.3-0.2-0.6-0.5-0.8-0.6c-0.1-0.1-0.2-0.1-0.2-0.1c-0.1,0-0.1,0-0.2,0c-0.2,0-0.5,0.1-0.8,0.3
					c-0.3,0.1-0.6,0.3-0.9,0.4c-0.3,0.2-0.6,0.3-0.8,0.5c-0.2,0.2-0.5,0.5-0.8,0.8c-0.3,0.3-0.4,0.4-0.5,0.6c0,0.1-0.1,0.2-0.1,0.4
					l0,0.6c-0.1,1.7-0.4,3.4-1.2,5.1c-0.1,0.2-0.2,0.4-0.4,0.6l-0.2,0.3l-0.2,0.2c0,0.1,0,0,0,0.1c0,0,0,0,0,0.1
					c0.1,0.1,0.2,0.3,0.3,0.5c0.5,0.7,1,1.3,1.6,1.9c1.1,1.2,2.3,2.2,3.6,3.1c0.6,0.4,1.3,0.8,1.9,1.2c0.3,0.2,0.7,0.4,0.8,0.4
					c0,0,0,0,0,0c0,0,0,0,0,0c0,0,0.1,0,0,0l0,0c0,0,0.1,0,0.2-0.2c1.1-0.9,2.1-1.7,3-2.5c1.8-1.6,3-3.2,3.8-4.4
					c0.8-1.2,1.2-1.9,1.2-1.9L131.5,154.8z"/>
			</g>
			<g id="XMLID_242_">
				<path id="XMLID_271_" d="M120.5,145.9c0.3-2.3,0.3-4.7-0.1-7.1c-0.1-0.4-0.1-0.9,0-1.3c0.2-0.6,0.9-0.9,1.6-1.1
					c3.8-1.2,8-1.1,11.8,0.3c1.8,0.7,3.7,1.8,4.3,3.6c0.2,0.6,0.3,1.2,0,1.7c-0.2,0.4-0.6,0.6-0.9,0.8c-2.5,1.7-5.1,3.3-7.6,4.9
					c-0.3,0.2-0.7,0.4-1.1,0.5c-0.4,0.1-0.8,0-1.2-0.1c-2.4-0.6-4.7-1.7-6.7-3.2c0-0.2,0-0.1,0-0.3"/>
				<path id="XMLID_270_" d="M120.4,145.8c-0.1-2.1-0.2-4.1-0.6-6.1c-0.1-0.5-0.2-0.9-0.3-1.7c0-0.4,0.1-0.8,0.3-1.2
					c0.2-0.4,0.6-0.6,0.8-0.8c0.6-0.4,1.2-0.5,1.7-0.6c0.5-0.1,1.1-0.2,1.6-0.3c2.2-0.3,4.4,0,6.4,0.4c1,0.2,2.1,0.4,3.1,0.7
					c1,0.3,2.1,0.6,3,1.2c1,0.6,1.9,1.4,2.4,2.6c0.2,0.6,0.4,1.3,0.1,2.1c-0.1,0.4-0.4,0.8-0.7,1c-0.3,0.2-0.5,0.4-0.7,0.6l-2.6,1.8
					c-0.9,0.6-1.7,1.1-2.6,1.7c-0.9,0.5-1.7,1.1-2.7,1.6c-0.3,0.1-0.6,0.3-1.1,0.4c-0.4,0.1-0.8,0-1.1-0.1c-0.3-0.1-0.6-0.2-0.8-0.2
					c-0.3-0.1-0.5-0.2-0.8-0.3c-1-0.4-2-0.9-2.9-1.5c-0.9-0.6-1.7-1.3-2.5-2l-0.1-0.1l0-0.1c0-0.1,0-0.1,0-0.2c0,0,0-0.1,0-0.1h0.2
					c0,0.1,0,0.1,0,0.2l0,0.1l-0.1-0.1c1.9,1,3.8,1.7,5.7,2.2c0.5,0.1,1,0.2,1.4,0.3c0.2,0,0.3,0,0.5,0c0.1,0,0.2-0.1,0.4-0.2
					l2.5-1.7c0.9-0.6,1.7-1.1,2.7-1.7l2.7-1.6c0.5-0.3,0.7-0.5,0.8-0.6c0.1-0.2,0.1-0.6,0-0.9c-0.2-0.8-0.8-1.6-1.5-2.2
					c-0.8-0.6-1.6-1.1-2.6-1.5c-1-0.4-2-0.6-3-0.7c-2-0.2-4.1,0.1-6,0.6l-1.4,0.4c-0.5,0.2-0.9,0.3-1.3,0.4
					c-0.2,0.1-0.2,0.2-0.3,0.2c0,0.1-0.1,0.1-0.1,0.3c0,0.3,0.1,0.9,0.1,1.5c0.1,2.1-0.1,4.3-0.7,6.3L120.4,145.8z"/>
			</g>
			<g id="XMLID_241_">
				<path id="XMLID_272_" d="M120.6,143.7c-1.1,0.3-1.8,1.4-1.8,2.6c0.1,1.3,1.1,2.4,2.1,3.3c3.6,3.2,7.5,6.4,11.6,8.8
					c-0.7-2.2-0.5-5.2-0.8-7.5c-0.1-1.4-0.3-2.8-1.3-3.8"/>
				<path id="XMLID_268_" d="M120.6,143.8c-0.4,0.3-0.7,0.6-0.9,0.9c-0.2,0.4-0.3,0.7-0.3,1.1c0,0.2,0,0.3,0,0.5
					c0,0.1,0.1,0.2,0.1,0.3l0.1,0.2c0.1,0.3,0.4,0.6,0.6,0.9c0.5,0.6,1.2,1.1,1.9,1.8c0.6,0.6,1.2,1.4,1.8,2.1
					c1.2,1.4,2.7,2.5,4.3,3.4l2.4,1.3c0.8,0.4,1.6,0.9,2.4,1.3l-1.5,1.2c-0.7-2.1-0.7-4.1-0.6-6c0-1,0.1-1.9,0-2.8
					c0-0.9-0.1-1.8-0.6-2.7l0.1-0.1c0.9,0.5,1.4,1.6,1.7,2.6c0.3,1,0.5,2,0.6,3c0.1,1,0.2,1.9,0.3,2.9c0.1,0.9,0.2,1.8,0.4,2.7
					l0.7,2.6l-2.1-1.4c-0.8-0.5-1.5-1.1-2.3-1.6c-0.7-0.6-1.4-1.2-2.1-1.9c-1.3-1.3-2.7-2.5-4.3-3.5c-0.8-0.5-1.6-1-2.3-1.5
					c-0.7-0.5-1.5-1.2-2.1-2c-0.3-0.4-0.6-0.9-0.7-1.5c0-0.1-0.1-0.3-0.1-0.4c0-0.2,0-0.3,0-0.4c0-0.3,0-0.6,0.1-0.9
					c0.2-0.5,0.5-1,0.9-1.4c0.4-0.3,0.9-0.6,1.4-0.6L120.6,143.8z"/>
			</g>
			<g id="XMLID_240_">
				<path id="XMLID_265_" d="M120.6,143.4c0.4,0,0.7,0.2,1,0.3c2.2,0.9,4.4,1.8,6.6,2.7c0.8,0.3,1.5,0.6,2.3,0.9"/>
				<path id="XMLID_261_" d="M120.7,143.3c0,0,0,0,0.1-0.1c0.1,0,0.2-0.1,0.4-0.1c0.4-0.1,0.8-0.1,1.3,0c0.2,0.1,0.5,0.1,0.8,0.3
					c0.2,0.1,0.5,0.4,0.7,0.7c0.2,0.3,0.5,0.5,0.8,0.6c0.3,0.1,0.6,0.2,1,0.1c0.4,0,0.7,0,1,0.1c0.3,0.1,0.6,0.1,0.9,0.2
					c0.6,0.1,1.1,0.5,1.5,0.8c0.4,0.3,0.7,0.6,0.9,0.9c0.2,0.3,0.3,0.5,0.3,0.5l-0.1,0.2c0,0-0.2,0.1-0.5,0.1c-0.3,0-0.8,0.1-1.3,0
					c-0.5-0.1-1.1-0.2-1.6-0.5c-0.3-0.2-0.5-0.3-0.8-0.5c-0.3-0.2-0.5-0.4-0.8-0.7c-0.3-0.3-0.5-0.5-0.8-0.6c-0.3-0.1-0.6-0.2-1-0.1
					c-0.3,0-0.7,0.1-1,0c-0.3-0.1-0.5-0.2-0.7-0.3c-0.4-0.3-0.7-0.6-0.9-0.8c-0.2-0.2-0.3-0.4-0.3-0.4L120.7,143.3z"/>
			</g>
			<g id="XMLID_236_">
				<path id="XMLID_264_" d="M130.5,146.2c0.2,0.2,0,0.6-0.3,0.6c-0.3,0.1-0.5,0-0.8-0.1c-2.1-0.7-4-1.7-5.7-3
					c-0.1-0.1-0.2-0.2-0.2-0.3c0-0.1,0-0.2,0.1-0.2c1.3-2.3,3.6-3.9,6.2-4.3c2.6-0.4,5.3,0.6,7,2.6c0.1,0.1,0.2,0.3,0.2,0.5
					c0,0.2-0.2,0.3-0.4,0.4c-2.2,1.1-4.3,2.6-6,4.3"/>
				<path id="XMLID_263_" d="M130.6,146.1c0,0,0.2,0.1,0.1,0.5c0,0.2-0.1,0.4-0.4,0.5c-0.2,0.1-0.5,0.1-0.8,0.1
					c-0.5-0.1-1-0.2-1.7-0.3c-0.6-0.2-1.3-0.4-2.1-0.8c-0.7-0.4-1.5-0.8-2.2-1.4l-0.3-0.2c-0.1-0.1-0.2-0.1-0.4-0.3
					c-0.2-0.2-0.4-0.7-0.2-1.1c0.1-0.3,0.2-0.3,0.3-0.4c0.3-0.4,0.7-0.8,1.1-1.1c0.8-0.7,1.6-1.3,2.5-1.8c0.9-0.5,1.9-1,2.9-1.3
					c0.3-0.1,0.5-0.1,0.8-0.2c0.3-0.1,0.6-0.1,0.9-0.1c0.6,0,1.1,0,1.7,0.1c1.1,0.2,2.2,0.6,3.1,1.2c0.5,0.3,0.9,0.7,1.3,1l0.3,0.3
					c0.1,0.1,0.2,0.2,0.3,0.5c0.1,0.2,0.2,0.8,0.1,1.2c-0.2,0.4-0.5,0.6-0.6,0.7c-0.2,0.1-0.3,0.2-0.4,0.2l-0.3,0.1
					c-0.2,0.1-0.4,0.2-0.5,0.3c-0.4,0.2-0.7,0.3-1,0.5c-1.3,0.7-2.4,1.3-3.2,1.8c-0.8,0.5-1.2,0.7-1.2,0.7l-0.1-0.1
					c0,0,0.3-0.5,0.9-1.2c0.6-0.7,1.5-1.7,2.8-2.7c0.3-0.2,0.7-0.5,1-0.7c0.2-0.1,0.4-0.2,0.6-0.4l0.3-0.2c0.1-0.1,0.2-0.1,0.2-0.1
					c0,0-0.1,0-0.2,0.2c-0.1,0.2,0,0.5,0,0.5c0.1,0.1-0.2-0.2-0.3-0.3c-0.3-0.3-0.6-0.6-0.9-0.8c-0.7-0.5-1.4-0.9-2.3-1.2
					c-0.9-0.3-1.8-0.5-2.8-0.5c-1,0-2,0.3-2.8,0.8c-0.9,0.5-1.5,1.2-2,2c-0.2,0.4-0.4,0.8-0.6,1.2c0,0.1-0.1,0.3-0.1,0.2
					c0.1-0.2,0-0.5-0.1-0.5c0,0,0.1,0,0.2,0.1l0.3,0.2c0.7,0.4,1.4,0.9,2,1.3c0.6,0.4,1.2,0.7,1.8,1c0.5,0.3,1,0.5,1.4,0.8
					c0.2,0.1,0.3,0.1,0.4,0.1c0.1,0,0.2,0,0.2-0.1c0.1-0.1,0.1-0.2,0.1-0.2L130.6,146.1z"/>
			</g>
			<g id="XMLID_234_" class="st8">
				<path id="XMLID_266_" d="M120.9,144.7c-0.5,0.5-1,1.2-0.8,1.9c0.1,0.3,0.3,0.6,0.5,0.8c3.1,3.6,6.6,6.8,10.5,9.5
					c-0.1-1.8-0.7-3.5-1.5-5c-0.2,0.6-0.2,1.2-0.2,1.9c-3.5-2.3-6.4-5.5-8.4-9.2"/>
				<path id="XMLID_256_" d="M120.9,144.8c-0.2,0.3-0.3,0.6-0.4,1c-0.1,0.3-0.1,0.6,0,0.7c0.1,0.2,0.3,0.4,0.6,0.6l0.8,0.7
					c1,1,2.1,1.9,3,3c1,1,1.8,2.2,2.9,3.2c1,1,2.2,1.9,3.4,2.6l-0.7,0.4c-0.1-0.8-0.4-1.7-0.8-2.4c-0.3-0.8-0.7-1.5-1.2-2.2l1.7-0.2
					c-0.1,0.5-0.1,1.1-0.1,1.6l0.1,1.9l-1.7-1.1c-0.5-0.3-0.9-0.6-1.4-0.9c-0.4-0.3-0.9-0.7-1.3-1c-0.8-0.7-1.6-1.5-2.2-2.4
					c-1.3-1.7-2.4-3.6-3-5.7l0.2-0.1l1,1.2l1,1.2l1.1,1.1l1.1,1.1l1.1,1c0.4,0.3,0.8,0.7,1.1,1c0.4,0.3,0.8,0.6,1.2,1
					c0.4,0.3,0.8,0.6,1.2,0.9l-1.6,0.9c0-0.7,0.1-1.4,0.3-2.1l0.7-2.2l1,2c0.4,0.8,0.7,1.7,0.9,2.7c0.2,0.9,0.2,1.9,0.2,2.8l0,0.9
					l-0.7-0.6c-1.1-0.9-2.2-1.8-3.4-2.7c-1.2-0.8-2.5-1.6-3.6-2.5c-0.6-0.5-1.1-1-1.6-1.5c-0.5-0.5-1-1.1-1.4-1.7
					c-0.2-0.3-0.4-0.6-0.6-0.9c-0.2-0.3-0.5-0.6-0.6-1.2c-0.1-0.5,0.1-1,0.3-1.3c0.3-0.3,0.6-0.6,0.9-0.8L120.9,144.8z"/>
			</g>
			<g id="XMLID_229_">
				<path id="XMLID_259_" d="M123.5,163.7c-2.5-1.1-4.8-2.6-6.7-4.5c-0.3-0.3-0.6-0.7-0.8-1.1c-0.1-0.4-0.1-0.8,0-1.3
					c0.2-1.6,0.3-3.1,0.4-4.7c0-0.6,0-1.2,0.2-1.7c0.3-0.8,1.1-1.2,1.6-1.8c0.1-0.1,0.2-0.2,0.3-0.2c0.1,0,0.2,0.1,0.3,0.2
					c1.3,1.7,2.4,3.7,4.2,4.8c-1.5-0.5-2.9-1.3-4.1-2.4c-0.4,0.7,0.1,1.5,0.6,2.2c0.8,1.1,1.7,2.1,2.5,3.2c-1.3-0.7-2.5-1.6-3.5-2.6
					c-2.5,2.9,2.3,6.5,4.4,7.8c0.1,0.1,0.2,0.1,0.4,0.1c0.2,0,0.2-0.2,0.3-0.4c0.3-1,0.4-2.1,0.3-3.1c0-0.2,0-0.5,0.1-0.7
					c0.1-0.1,0.2-0.2,0.4-0.3c1.1-0.4,2.3-0.6,3.5-0.5c0.2,0,0.4,0.1,0.5,0.2c0.1,0.2,0,0.4,0,0.6c-1,2.4-2.8,4.5-4.9,5.9"/>
				<path id="XMLID_258_" d="M123.4,163.8c-2.2-0.6-4.2-1.7-6.1-3.1c-0.5-0.4-0.9-0.7-1.3-1.1c-0.2-0.2-0.5-0.5-0.7-0.8
					c-0.2-0.3-0.3-0.8-0.3-1.2c0-0.3,0-0.7,0-0.9l0-0.8l0.1-1.7c0-0.6,0.1-1.1,0.1-1.7c0.1-0.4,0-1.1,0.2-1.8c0-0.2,0.1-0.3,0.1-0.5
					l0.1-0.2l0-0.1c0-0.1,0.1-0.2,0.2-0.3c0.2-0.3,0.5-0.6,0.7-0.8l0.7-0.5c0.1-0.1,0.2-0.1,0.3-0.2c0.1-0.1,0.1-0.2,0.3-0.3
					c0.2-0.1,0.6-0.2,0.8,0c0.5,0.3,0.4,0.4,0.5,0.5l0.2,0.4l0.4,0.7c0.3,0.5,0.6,0.9,0.9,1.4c0.6,0.9,1.3,1.7,2.2,2.3l2.1,1.4
					l-2.4-0.8c-1.6-0.5-3-1.4-4.2-2.5l0.6-0.1c-0.2,0.3,0,0.7,0.2,1.1c0.3,0.4,0.6,0.8,1,1.2l2.1,2.4l2.4,2.7l-3.3-1.6
					c-1.4-0.7-2.7-1.6-3.8-2.6l1.3-0.1c-0.2,0.4-0.4,0.7-0.4,1.1c0,0.4,0.1,0.8,0.3,1.2c0.2,0.4,0.5,0.8,0.9,1.2
					c0.3,0.4,0.8,0.7,1.2,1.1c0.4,0.4,0.8,0.7,1.3,1l0.7,0.5l0.4,0.2c0.1,0.1,0.2,0.1-0.1,0c-0.1,0-0.2,0-0.3,0c0,0-0.2,0.1-0.2,0.1
					c0,0-0.1,0.1-0.1,0.1c-0.1,0.1-0.1,0.2-0.1,0.2c0,0.1,0.1-0.2,0.1-0.3c0.1-0.2,0.1-0.5,0.2-0.7c0.1-0.5,0.1-1,0.1-1.5l0-0.4
					c0-0.2,0-0.5,0.2-0.9c0.2-0.4,0.6-0.6,0.8-0.7c0.2-0.1,0.3-0.1,0.5-0.2c0.6-0.2,1.3-0.3,1.9-0.4c0.3,0,0.7,0,1,0
					c0.2,0,0.3,0,0.5,0.1c0.2,0,0.3,0,0.6,0.1c0.2,0.1,0.7,0.3,0.8,0.8c0.1,0.4,0,0.7-0.1,0.9c-0.2,0.4-0.3,0.5-0.4,0.8
					c-0.6,1.1-1.4,2-2.2,2.9c-0.9,0.8-1.9,1.5-2.9,2.1l-0.1-0.2c0.9-0.7,1.7-1.6,2.4-2.5c0.7-0.9,1.3-1.9,1.7-2.9
					c0.1-0.2,0.2-0.6,0.3-0.8c0-0.1,0-0.1,0,0.1c0,0.2,0.2,0.3,0.2,0.2l-0.3,0l-0.4,0c-0.3,0-0.5,0-0.8,0.1c-0.5,0.1-1,0.2-1.5,0.4
					c-0.1,0-0.3,0.1-0.3,0.1c-0.1,0,0.1,0,0.1-0.2c0.1-0.1,0-0.1,0,0l0,0.4c0.1,0.7,0,1.3-0.1,2c0,0.3-0.1,0.6-0.2,1
					c-0.1,0.2,0,0.2-0.2,0.6c-0.1,0.1-0.2,0.3-0.4,0.6c-0.1,0.1-0.1,0.1-0.2,0.1c0,0-0.3,0.1-0.3,0.1c-0.1,0-0.4,0.1-0.5,0.1
					c-0.7-0.1-0.8-0.3-0.9-0.3l-0.4-0.3c-0.3-0.2-0.5-0.3-0.8-0.5c-0.5-0.4-1-0.7-1.4-1.2c-0.5-0.4-0.9-0.9-1.3-1.4
					c-0.4-0.5-0.8-1-1.1-1.7c-0.3-0.6-0.5-1.4-0.4-2.2c0.1-0.8,0.5-1.5,0.9-2.1l0.6-0.8l0.7,0.7c1,1,2.1,1.9,3.3,2.7l-0.9,1.1
					l-1.8-2.6c-0.3-0.4-0.6-0.9-0.9-1.4c-0.1-0.3-0.3-0.6-0.3-0.9c-0.1-0.3,0-0.7,0.2-1l0.2-0.4l0.3,0.3c1.1,1.1,2.4,2,3.9,2.4
					l-0.3,0.6c-1-0.6-1.8-1.4-2.6-2.3c-0.4-0.4-0.7-0.9-1.1-1.3l-0.5-0.6l-0.3-0.3c-0.1-0.1-0.2-0.2,0-0.1c0.1,0.1,0.4,0.1,0.4,0
					c0.1,0,0.1,0,0,0c-0.1,0.1-0.2,0.3-0.3,0.4l-0.6,0.6c-0.2,0.2-0.3,0.3-0.4,0.5c0,0,0,0,0,0.1l0,0.1c0,0,0,0.1,0,0l0,0
					c0,0.1,0,0.2-0.1,0.3c-0.1,0.4,0,0.9-0.1,1.6c0,0.6-0.1,1.1-0.1,1.7l-0.2,1.7l-0.1,0.8c0,0.4-0.1,0.6-0.1,0.8
					c0,0.2,0,0.3,0.1,0.4c0.1,0.1,0.2,0.3,0.4,0.5c0.4,0.4,0.7,0.8,1.1,1.1c1.6,1.5,3.3,2.8,5.3,3.9L123.4,163.8z"/>
			</g>
			<g id="XMLID_228_">
				<path id="XMLID_254_" d="M121.3,162.5c-0.2-0.1-0.6,0.1-0.6,0.4c2.8-1.8,5.2-4.2,7-7"/>
				<path id="XMLID_253_" d="M121.3,162.6c-0.1,0-0.1,0.1-0.1,0.1c0,0,0,0.1,0,0.1c0,0.1,0.1,0.1,0.2,0l-0.9-0.5
					c0.2-0.4,0.5-0.7,0.8-0.9c0.3-0.3,0.7-0.4,1.1-0.5c0.4-0.1,0.8-0.3,1.1-0.6c0.3-0.3,0.4-0.7,0.6-1.1c0.2-0.4,0.4-0.7,0.6-1.1
					c0.2-0.3,0.4-0.7,0.7-0.9c0.6-0.6,1.2-1.1,2.2-1.4l0.2,0.1c0,0.5,0,1-0.2,1.4c-0.1,0.4-0.3,0.8-0.5,1.2c-0.2,0.4-0.5,0.7-0.9,1
					c-0.3,0.3-0.7,0.6-1.1,0.7c-0.4,0.2-0.9,0.3-1.2,0.6c-0.4,0.2-0.6,0.6-0.8,1c-0.2,0.4-0.5,0.8-0.8,1c-0.4,0.2-0.8,0.4-1.2,0.5
					l-1,0.2l0.1-0.7c0.1-0.4,0.3-0.6,0.6-0.6c0.1,0,0.2,0,0.4,0c0.1,0,0.2,0.1,0.3,0.2L121.3,162.6z"/>
			</g>
			<g id="XMLID_227_">
				<path id="XMLID_251_" d="M129.8,156.3c0.2-3.2,0-6.5-0.5-9.7"/>
				<path id="XMLID_250_" d="M129.7,156.3c0,0-0.2-0.2-0.3-0.4c-0.1-0.3-0.3-0.6-0.4-1.1c0-0.2-0.1-0.5,0-0.7c0-0.3,0.2-0.5,0.3-0.8
					c0.1-0.3,0.2-0.6,0.2-0.9c0-0.3-0.1-0.6-0.3-0.9c-0.2-0.3-0.3-0.6-0.4-0.9c-0.1-0.3-0.2-0.6-0.2-0.8c-0.1-0.5-0.1-1.1,0-1.5
					c0.1-0.5,0.2-0.9,0.3-1.1c0.1-0.3,0.2-0.5,0.2-0.5l0.2,0c0,0,0.2,0.1,0.4,0.4c0.2,0.2,0.4,0.6,0.6,1c0.2,0.4,0.4,1,0.3,1.6
					c0,0.3,0,0.6-0.1,0.9c0,0.3-0.2,0.6-0.3,0.9c-0.1,0.3-0.2,0.6-0.2,0.9c0,0.3,0.1,0.6,0.3,0.9c0.1,0.3,0.3,0.6,0.3,0.8
					c0,0.3,0,0.5,0,0.7c-0.1,0.5-0.3,0.8-0.5,1.1c-0.2,0.3-0.3,0.4-0.3,0.4L129.7,156.3z"/>
			</g>
			<g id="XMLID_35_">
				<defs>
					<path id="XMLID_38_" d="M125.9,143.1c7.1,1,6.7,8.4,4.2,13.5c-1.3,2.8-3.3,5.5-5.8,7.3c-2.7,2-4.1,3.1-7.6,1.8
						c-0.4-0.2-0.8-0.3-1.2-0.6c-0.6-0.5-0.9-1.3-1.5-1.8c-0.4-0.4-1-0.6-1.5-0.9c-0.9-0.7-1.2-2-1-3.1c0.3-2.3,2.2-3.9,3-6.1
						c0.8-2.2,1.2-4.5,2.7-6.4C119.3,144.2,122.6,142.6,125.9,143.1z"/>
				</defs>
				<use xlink:href="#XMLID_38_"  style="overflow:visible;fill:#7D0A23;"/>
				<clipPath id="XMLID_123_">
					<use xlink:href="#XMLID_38_"  style="overflow:visible;"/>
				</clipPath>
				<use xlink:href="#XMLID_38_"  style="overflow:visible;fill:none;stroke:#000000;stroke-width:2;stroke-miterlimit:10;"/>
			</g>
			<path id="XMLID_212_" class="st4" d="M131.4,154.8c-1.6,4.2-4,6.8-7.6,9.5c-0.2,0.1-0.4,0.3-0.6,0.3c-0.3,0.1-0.7-0.1-1-0.4
				c-2.9-2-5.5-4.5-7.7-7.2c-0.1-0.1-0.2-0.3-0.2-0.4c0-0.2,0.1-0.4,0.2-0.5c1.1-1.5,1.3-4.4,1.3-6.2c0-1.1,0.3-1.4,1.1-2.2
				c0.7-0.8,1.7-1.4,2.8-1.8c0.4-0.2,0.8-0.3,1.3-0.2c0.4,0.1,0.7,0.3,1,0.6c3.4,2.6,6.6,5.6,9.3,8.9"/>
			<path id="XMLID_194_" class="st4" d="M120.5,145.9c0.3-2.3,0.3-4.7-0.1-7.1c-0.1-0.4-0.1-0.9,0-1.3c0.2-0.6,0.9-0.9,1.6-1.1
				c3.8-1.2,8-1.1,11.8,0.3c1.8,0.7,3.7,1.8,4.3,3.6c0.2,0.6,0.3,1.2,0,1.7c-0.2,0.4-0.6,0.6-0.9,0.8c-2.5,1.7-5.1,3.3-7.6,4.9
				c-0.3,0.2-0.7,0.4-1.1,0.5c-0.4,0.1-0.8,0-1.2-0.1c-2.4-0.6-4.7-1.7-6.7-3.2c0-0.2,0-0.1,0-0.3"/>
			<path id="XMLID_195_" class="st4" d="M120.6,143.7c-1.1,0.3-1.8,1.4-1.8,2.6c0.1,1.3,1.1,2.4,2.1,3.3c3.6,3.2,7.5,6.4,11.6,8.8
				c-0.7-2.2-0.5-5.2-0.8-7.5c-0.1-1.4-0.3-2.8-1.3-3.8"/>
			<path id="XMLID_208_" class="st6" d="M120.6,143.4c0.4,0,0.7,0.2,1,0.3c2.2,0.9,4.4,1.8,6.6,2.7c0.8,0.3,1.5,0.6,2.3,0.9"/>
			<path id="XMLID_213_" class="st7" d="M130.5,146.2c0.2,0.2,0,0.6-0.3,0.6c-0.3,0.1-0.5,0-0.8-0.1c-2.1-0.7-4-1.7-5.7-3
				c-0.1-0.1-0.2-0.2-0.2-0.3c0-0.1,0-0.2,0.1-0.2c1.3-2.3,3.6-3.9,6.2-4.3c2.6-0.4,5.3,0.6,7,2.6c0.1,0.1,0.2,0.3,0.2,0.5
				c0,0.2-0.2,0.3-0.4,0.4c-2.2,1.1-4.3,2.6-6,4.3"/>
			<path id="XMLID_214_" class="st5" d="M120.9,144.7c-0.5,0.5-1,1.2-0.8,1.9c0.1,0.3,0.3,0.6,0.5,0.8c3.1,3.6,6.6,6.8,10.5,9.5
				c-0.1-1.8-0.7-3.5-1.5-5c-0.2,0.6-0.2,1.2-0.2,1.9c-3.5-2.3-6.4-5.5-8.4-9.2"/>
			<path id="XMLID_216_" class="st7" d="M123.5,163.7c-2.5-1.1-4.8-2.6-6.7-4.5c-0.3-0.3-0.6-0.7-0.8-1.1c-0.1-0.4-0.1-0.8,0-1.3
				c0.2-1.6,0.3-3.1,0.4-4.7c0-0.6,0-1.2,0.2-1.7c0.3-0.8,1.1-1.2,1.6-1.8c0.1-0.1,0.2-0.2,0.3-0.2c0.1,0,0.2,0.1,0.3,0.2
				c1.3,1.7,2.4,3.7,4.2,4.8c-1.5-0.5-2.9-1.3-4.1-2.4c-0.4,0.7,0.1,1.5,0.6,2.2c0.8,1.1,1.7,2.1,2.5,3.2c-1.3-0.7-2.5-1.6-3.5-2.6
				c-2.5,2.9,2.3,6.5,4.4,7.8c0.1,0.1,0.2,0.1,0.4,0.1c0.2,0,0.2-0.2,0.3-0.4c0.3-1,0.4-2.1,0.3-3.1c0-0.2,0-0.5,0.1-0.7
				c0.1-0.1,0.2-0.2,0.4-0.3c1.1-0.4,2.3-0.6,3.5-0.5c0.2,0,0.4,0.1,0.5,0.2c0.1,0.2,0,0.4,0,0.6c-1,2.4-2.8,4.5-4.9,5.9"/>
			<path id="XMLID_219_" class="st6" d="M121.3,162.5c-0.2-0.1-0.6,0.1-0.6,0.4c2.8-1.8,5.2-4.2,7-7"/>
			<path id="XMLID_226_" class="st6" d="M129.8,156.3c0.2-3.2,0-6.5-0.5-9.7"/>
			<path id="XMLID_230_" class="st6" d="M114.3,152.9c-0.5,1.6-0.7,3.3-0.8,5.1"/>
		</g>
	</g>
</g>
<g id="shield" class="st30">
	<g id="XMLID_337_" class="st31">
		<g id="XMLID_314_">
			<linearGradient id="XMLID_124_" gradientUnits="userSpaceOnUse" x1="91.6685" y1="145.3056" x2="156.2856" y2="145.3056">
				<stop  offset="0" style="stop-color:#D2D0CF"/>
				<stop  offset="1" style="stop-color:#BCBBBB"/>
			</linearGradient>
			<path id="XMLID_363_" class="st32" d="M156.3,160.4c0,1.6-1.2,3.7-2.6,4.5l-27,15.9c-1.4,0.8-3.8,0.9-5.2,0.1l-27.1-15.1
				c-1.4-0.8-2.6-2.8-2.6-4.5l-0.1-31c0-1.6,1.2-3.7,2.6-4.5l27-15.9c1.4-0.8,3.8-0.9,5.2-0.1l27.1,15.1c1.4,0.8,2.6,2.8,2.6,4.5
				L156.3,160.4z"/>
			<path id="XMLID_360_" class="st33" d="M156.3,160.4c0,1.6-1.2,3.7-2.6,4.5l-27,15.9c-1.4,0.8-3.8,0.9-5.2,0.1l-27.1-15.1
				c-1.4-0.8-2.6-2.8-2.6-4.5l-0.1-31c0-1.6,1.2-3.7,2.6-4.5l27-15.9c1.4-0.8,3.8-0.9,5.2-0.1l27.1,15.1c1.4,0.8,2.6,2.8,2.6,4.5
				L156.3,160.4z"/>
		</g>
		<g id="XMLID_342_">
			<path id="XMLID_359_" class="st34" d="M154.5,159.9c0,1.6-1.1,3.7-2.5,4.5L127.3,179c-1.4,0.8-3.8,0.8-5.2,0l-25.3-14.6
				c-1.4-0.8-2.6-2.8-2.7-4.5l-0.5-29.2c0-1.6,1.1-3.7,2.5-4.5l24.7-14.5c1.4-0.8,3.8-0.8,5.2,0l25.3,14.6c1.4,0.8,2.6,2.8,2.7,4.5
				L154.5,159.9z"/>
		</g>
		<g id="XMLID_323_">
			<linearGradient id="XMLID_125_" gradientUnits="userSpaceOnUse" x1="97.9757" y1="145.5576" x2="152.004" y2="145.5576">
				<stop  offset="0" style="stop-color:#D2D0CF"/>
				<stop  offset="1" style="stop-color:#BCBBBB"/>
			</linearGradient>
			<path id="XMLID_362_" class="st35" d="M151.8,157.1c0,1.6-1.2,3.7-2.6,4.5l-21.9,12.9c-1.4,0.8-3.8,0.9-5.2,0.1l-21.5-11.7
				c-1.5-0.8-2.6-2.8-2.6-4.4l0.2-24.4c0-1.6,1.2-3.7,2.6-4.5l21.9-12.9c1.4-0.8,3.8-0.9,5.2-0.1l21.5,11.7c1.5,0.8,2.6,2.8,2.6,4.4
				L151.8,157.1z"/>
			<path id="XMLID_354_" class="st36" d="M151.8,157.1c0,1.6-1.2,3.7-2.6,4.5l-21.9,12.9c-1.4,0.8-3.8,0.9-5.2,0.1l-21.5-11.7
				c-1.5-0.8-2.6-2.8-2.6-4.4l0.2-24.4c0-1.6,1.2-3.7,2.6-4.5l21.9-12.9c1.4-0.8,3.8-0.9,5.2-0.1l21.5,11.7c1.5,0.8,2.6,2.8,2.6,4.4
				L151.8,157.1z"/>
		</g>
		<polygon id="XMLID_351_" class="st37" points="124.9,117 125.8,123.6 125.8,127.3 126.6,130.4 126.6,140.6 141.3,146.9 149,149.8 
			149,130.8 		"/>
		<polygon id="XMLID_327_" class="st38" points="97.9,154.9 102.3,151.8 102.7,132.1 121.2,120 120.8,118.3 99.5,130.8 		"/>
		<path id="XMLID_326_" class="st39" d="M102.1,163.9c-1.6-1.1-3-2.5-4.1-4.5l0-4.9l26.4-11.6l27.5,9.6l-0.1,5.9l-1.2,2.4
			l-24.3,13.7L123,175c-3.8-2.1-7.6-4.2-11.4-6.2C108.4,167,104.9,165.9,102.1,163.9z"/>
		<g id="XMLID_328_">
			<path id="XMLID_350_" class="st6" d="M142.6,155.6c-0.1,1.6-1.3,3.7-2.7,4.5l-13.1,7.7c-1.4,0.8-3.8,0.9-5.3,0.2l-12.3-6.3
				c-1.5-0.8-2.6-2.7-2.6-4.4l0.4-13.8c0.1-1.6,1.3-3.7,2.7-4.5l13.1-7.7c1.4-0.8,3.8-0.9,5.3-0.2l12.3,6.3c1.5,0.8,2.6,2.7,2.6,4.4
				L142.6,155.6z"/>
		</g>
		<line id="XMLID_330_" class="st6" x1="124" y1="181.3" x2="123" y2="175"/>
		<line id="XMLID_329_" class="st6" x1="150.5" y1="160.8" x2="156.3" y2="163.4"/>
		<line id="XMLID_331_" class="st6" x1="151.4" y1="130.8" x2="155.5" y2="127.5"/>
		<line id="XMLID_332_" class="st6" x1="125.7" y1="116" x2="124.3" y2="109.2"/>
		<line id="XMLID_333_" class="st6" x1="93.3" y1="127.5" x2="98.4" y2="132"/>
		<line id="XMLID_334_" class="st6" x1="93.1" y1="163.1" x2="99" y2="160.5"/>
		<path id="XMLID_335_" class="st1" d="M94.1,164.6"/>
		<polygon id="XMLID_347_" class="st40" points="97.9,154.9 100.4,153.8 101.9,161.1 123.5,172.7 148.5,158.7 149,153.4 
			150.5,153.8 150.5,159.1 127.4,172.7 122,172.7 101.5,162.4 		"/>
		<polygon id="XMLID_343_" class="st40" points="107.8,151.2 124.4,142.9 117.5,149.8 109.4,153.4 110.9,158.3 125.2,167.4 
			121.6,167.8 107.8,159.6 		"/>
	</g>
</g>
</svg>
